<svg width="64" height="64" viewBox="0 0 64 64" fill="none" xmlns="http://www.w3.org/2000/svg">
<path d="M13.3333 13.3057C13.3333 10.7159 13.3333 9.42104 13.8732 8.70725C14.3436 8.08541 15.0626 7.70061 15.841 7.65414C16.7344 7.60079 17.8118 8.31906 19.9666 9.75561L48.0081 28.4499C49.7886 29.6369 50.6789 30.2304 50.9891 30.9785C51.2603 31.6325 51.2603 32.3675 50.9891 33.0215C50.6789 33.7696 49.7886 34.3631 48.0081 35.5501L19.9666 54.2444C17.8118 55.681 16.7344 56.3992 15.841 56.3459C15.0626 56.2994 14.3436 55.9146 13.8732 55.2928C13.3333 54.579 13.3333 53.2841 13.3333 50.6943V13.3057Z" stroke="white" stroke-width="4" stroke-linecap="round" stroke-linejoin="round"/>
</svg>
