<svg width="31" height="48" viewBox="0 0 31 48" fill="none" xmlns="http://www.w3.org/2000/svg">
<path d="M25.9673 43.5256C25.0796 44.437 24.0595 45.2092 22.9414 45.8161C20.4414 47.1721 17.779 48.0238 14.9223 47.9995C12.5656 47.9794 10.3362 47.2767 8.23152 46.2349C3.82711 44.0574 1.29703 40.4377 0.359027 35.6824C0.107777 34.4203 0.0240272 33.1079 0.0240272 31.819C-0.00221446 21.4089 -0.00696142 10.9988 0.00978858 0.588637V0.00992464C1.1729 -0.0374559 2.3367 0.0849905 3.46447 0.3734C4.43597 0.616275 5.3455 0.999012 6.11265 1.6598C7.02552 2.44537 7.52216 3.41855 7.52049 4.65302C7.50876 13.765 7.50737 22.8773 7.5163 31.9899C7.50995 33.9023 8.11082 35.7673 9.23234 37.3163C10.9609 39.7493 13.3897 40.6002 16.2841 40.3196C18.0227 40.1521 19.6341 39.6186 20.9682 38.5291L25.9673 43.5256ZM23.8032 43.1127C22.9179 42.281 22.0704 41.4754 21.2069 40.6906C21.1324 40.6228 20.9213 40.6538 20.7965 40.7007C18.619 41.5189 16.3754 41.9569 14.0379 41.7635C10.9777 41.5128 8.67037 40.0611 7.11597 37.4085C6.11097 35.6874 5.90328 33.757 5.8949 31.8441C5.86475 25.0528 5.94515 18.2616 5.94599 11.4703C5.94599 9.29277 6.07664 7.10606 5.79775 4.92689C5.52724 2.80885 3.771 1.2511 1.40004 1.7V2.22762C1.40004 11.8572 1.40004 21.4868 1.40004 31.1163C1.40004 32.0376 1.45113 32.9521 1.48379 33.8692C1.5399 35.7117 2.12699 37.3976 3.04321 38.9729C4.79359 41.9837 7.42417 44.0214 10.4584 45.6017C10.5458 45.6461 10.6384 45.6793 10.734 45.7006C13.414 46.3454 16.1049 46.518 18.81 45.8815C20.7044 45.4367 22.3802 44.5708 23.8032 43.1127Z" fill="white"/>
<path d="M27.438 41.7243L22.4967 36.7831C23.5134 34.892 24.0528 32.8678 23.5017 30.7037C23.021 28.7917 21.9322 27.2548 20.4038 26.0036C17.7514 23.8362 12.8387 24.0866 10.5481 26.4341V18.6529C11.1704 18.5348 11.8571 18.3715 12.5531 18.2768C16.1694 17.7861 19.6224 18.3338 22.8267 20.0967C26.3886 22.0556 28.5317 25.1644 29.5769 29.0186C30.7947 33.5093 29.9119 37.7077 27.5175 41.633C27.4934 41.6655 27.4668 41.696 27.438 41.7243Z" fill="white"/>
</svg>
