<svg width="41" height="40" viewBox="0 0 41 40" fill="none" xmlns="http://www.w3.org/2000/svg">
<g id="clapperboard">
<path id="Icon" d="M15.3333 5L13.6666 13.3333M27 5L25.3333 13.3333M37 13.3333H3.66664M11.6666 35H29C31.8002 35 33.2004 35 34.2699 34.455C35.2107 33.9757 35.9756 33.2108 36.455 32.27C37 31.2004 37 29.8003 37 27V13C37 10.1997 37 8.79961 36.455 7.73005C35.9756 6.78924 35.2107 6.02433 34.2699 5.54497C33.2004 5 31.8002 5 29 5H11.6666C8.86638 5 7.46625 5 6.39669 5.54497C5.45588 6.02433 4.69098 6.78924 4.21161 7.73005C3.66664 8.79961 3.66664 10.1997 3.66664 13V27C3.66664 29.8003 3.66664 31.2004 4.21161 32.27C4.69098 33.2108 5.45588 33.9757 6.39669 34.455C7.46625 35 8.86638 35 11.6666 35Z" stroke="#004EEB" stroke-width="3" stroke-linecap="round" stroke-linejoin="round"/>
</g>
</svg>
