<svg width="41" height="40" viewBox="0 0 41 40" fill="none" xmlns="http://www.w3.org/2000/svg">
<g id="credit-card-01">
<path id="Icon" d="M37 16.6666H3.66664M3.66664 13.6666L3.66664 26.3332C3.66664 28.2001 3.66664 29.1335 4.02995 29.8466C4.34953 30.4738 4.85947 30.9837 5.48667 31.3033C6.19971 31.6666 7.13313 31.6666 8.99997 31.6666L31.6666 31.6666C33.5335 31.6666 34.4669 31.6666 35.1799 31.3033C35.8072 30.9837 36.3171 30.4738 36.6367 29.8466C37 29.1335 37 28.2001 37 26.3333V13.6666C37 11.7997 37 10.8663 36.6367 10.1533C36.3171 9.52608 35.8072 9.01614 35.1799 8.69657C34.4669 8.33325 33.5335 8.33325 31.6666 8.33325L8.99998 8.33325C7.13313 8.33325 6.19971 8.33325 5.48667 8.69656C4.85947 9.01614 4.34953 9.52608 4.02995 10.1533C3.66664 10.8663 3.66664 11.7997 3.66664 13.6666Z" stroke="#9F1AB1" stroke-width="3" stroke-linecap="round" stroke-linejoin="round"/>
</g>
</svg>
