<svg width="300" height="210" viewBox="0 0 300 210" fill="none" xmlns="http://www.w3.org/2000/svg">
<path d="M230.103 141.665C229.976 141.665 229.848 141.657 229.721 141.65C230.096 139.446 230.486 137.234 231.003 135.015C231.498 137.152 231.88 139.273 232.24 141.402C231.54 141.568 230.823 141.656 230.103 141.665Z" fill="#001D62"/>
<path d="M232.517 143.029C232.502 144.303 232.502 145.578 232.502 146.852C232.502 148.246 232.51 149.648 232.502 151.043V191.096C232.045 193.773 231.603 196.441 231.003 199.11C230.403 196.441 229.961 193.773 229.504 191.096V147.04C229.504 145.705 229.504 144.363 229.489 143.029C229.541 142.729 229.586 142.437 229.639 142.137C230.541 142.243 231.454 142.225 232.352 142.084C232.412 142.399 232.465 142.714 232.517 143.029Z" fill="#001D62"/>
<path d="M181.639 75.291C181.639 75.291 181.796 75.5685 182.104 76.0033L182.089 76.0183L179.885 78.3796C178.985 79.0169 178.086 79.654 177.118 80.2238C177.628 79.2267 178.206 78.2896 178.775 77.3452L180.447 75.5685C181.174 75.4186 181.639 75.291 181.639 75.291Z" fill="#001D62"/>
<path d="M194.81 61.3477C194.293 62.3372 193.716 63.2818 193.146 64.2189L190.934 66.5802L190.53 67.0075C189.99 66.8274 189.439 66.6846 188.88 66.5802L189.84 65.5533L192.051 63.1918C192.951 62.562 193.851 61.9324 194.81 61.3477Z" fill="#001D62"/>
<path d="M219.314 79.5088C219.43 79.2491 219.609 79.0223 219.835 78.8486C220.004 78.7215 220.202 78.6387 220.411 78.608C220.62 78.5793 220.833 78.6054 221.029 78.6836C221.292 78.7889 221.524 78.9592 221.703 79.1787H221.705L221.715 79.1926L221.705 79.2063L221.707 79.2065C221.591 79.4649 221.412 79.6897 221.185 79.8597C221.016 79.9862 220.817 80.0667 220.608 80.0934C220.398 80.1183 220.185 80.09 219.989 80.011C219.726 79.9019 219.494 79.7294 219.314 79.5088Z" fill="#001D62"/>
<path d="M188.778 83.5653L172.375 85.5926C166.907 86.2639 161.437 86.9171 155.965 87.5522C145.019 88.8099 134.082 90.1415 123.128 91.3268L90.2781 94.9701L57.4091 98.4409L57.4051 98.4415C57.3143 98.4506 57.2226 98.4409 57.1357 98.4132C52.4495 96.8947 47.7582 95.3916 43.085 93.8325L29.0528 89.1937C24.3722 87.6571 19.6994 86.0965 15.0343 84.5119L1.03827 79.76L15.192 84.0192C19.9097 85.4394 24.6201 86.8825 29.3232 88.3485L43.4408 92.7208C48.1508 94.1654 52.8428 95.666 57.5398 97.1512L57.2665 97.1234L90.1176 93.4859L122.987 90.0208C133.94 88.8366 144.91 87.7987 155.871 86.6871C161.351 86.1291 166.835 85.5975 172.321 85.0925L188.778 83.5653Z" fill="#001D62"/>
<path d="M1.03607 86.7451C5.68072 88.3619 10.2961 90.0555 14.9253 91.7128L28.7663 96.8067L35.6839 99.3615L42.5791 101.974L56.3697 107.199L56.0176 107.156C62.5896 106.269 69.175 105.484 75.755 104.659L95.5004 102.223L115.263 99.9198C121.856 99.1966 128.446 98.4446 135.046 97.7797C128.491 98.7975 121.924 99.7285 115.361 100.688L95.6554 103.434L75.9326 106.046C69.3567 106.904 62.7858 107.803 56.2019 108.598L56.1937 108.599C56.0771 108.612 55.9589 108.597 55.8494 108.555L42.1033 103.214L35.2302 100.544L28.3792 97.8156L14.6834 92.3434C10.1337 90.4785 5.57017 88.6503 1.03607 86.7451Z" fill="#001D62"/>
<path d="M55.5514 175.012C55.4107 168.569 55.3653 162.129 55.4154 155.691C55.4447 149.252 55.5616 142.815 55.6956 136.379C55.8574 129.943 56.0382 123.507 56.3063 117.074C56.553 110.641 56.8968 104.209 57.3377 97.7798C57.4802 104.222 57.5263 110.663 57.476 117.101C57.4462 123.54 57.3292 129.977 57.1934 136.413C57.0296 142.849 56.849 149.284 56.5805 155.717C56.3331 162.151 55.99 168.583 55.5514 175.012Z" fill="#001D62"/>
<path d="M256.627 28.3905C255.705 27.9783 254.858 27.4138 254.123 26.7207C253.395 26.0069 252.764 25.1993 252.249 24.3193C251.743 23.4345 251.324 22.5026 250.999 21.5367C250.671 20.5606 250.435 19.5561 250.293 18.5363C250.287 18.4896 250.288 18.4422 250.296 18.3959L250.312 18.3117C250.544 17.2638 250.662 16.1942 250.667 15.1211C250.674 14.0526 250.562 12.9867 250.331 11.9434C249.871 9.86411 249.007 7.89554 247.788 6.14978L247.87 6.23635C246.573 4.99641 245.128 3.92055 243.569 3.03296C241.986 2.16424 240.267 1.57016 238.486 1.27598C234.831 0.81439 231.124 1.54247 227.915 3.35234C227.108 3.78398 226.331 4.26742 225.587 4.79964C225.216 5.06466 224.852 5.339 224.501 5.6247C224.337 5.7605 224.131 5.92924 224.021 6.04363C223.881 6.19389 223.738 6.36922 223.601 6.53924C222.528 7.96864 221.719 9.57886 221.215 11.2935C220.707 12.9995 220.441 14.7681 220.423 16.5479C220.441 18.3337 220.656 20.1121 221.062 21.8511C221.088 21.9754 221.091 22.1035 221.069 22.2287C220.899 23.1661 220.716 24.083 220.508 25.0094C220.31 25.9531 220.059 26.885 219.757 27.8007C219.615 28.2293 219.279 28.9777 219.354 28.8219C219.323 28.7683 219.372 28.9089 219.636 29.0933C220.237 29.4591 220.923 29.6615 221.626 29.6806L221.698 29.6779C221.855 29.6724 222.011 29.7056 222.153 29.7744C222.294 29.8432 222.417 29.9456 222.51 30.0727C223.56 31.5269 224.671 32.961 225.773 34.3815C226.848 35.7919 228.013 37.1303 229.263 38.3881C229.417 38.5285 229.571 38.6608 229.722 38.7759C229.793 38.8262 229.869 38.8802 229.931 38.9174L230.014 38.9639C230.039 38.9772 230.034 38.9679 230.043 38.9787C230.073 38.9952 229.978 38.9628 229.952 38.9891C229.929 39.003 230.026 38.9737 230.058 38.9684C230.156 38.9478 230.252 38.9222 230.348 38.8916C230.545 38.8367 230.749 38.7644 230.952 38.6961C231.772 38.3938 232.568 38.026 233.33 37.5964C234.89 36.7938 236.232 35.6256 237.243 34.1915L237.267 34.1538C237.287 34.1221 237.314 34.0948 237.345 34.0733C237.376 34.0519 237.411 34.0367 237.447 34.0287C237.484 34.0208 237.522 34.0201 237.559 34.0268C237.596 34.0335 237.632 34.0474 237.663 34.0678L237.694 34.0908C238.143 34.4704 238.56 34.8854 238.942 35.3319C239.136 35.5552 239.31 35.7953 239.461 36.0495C239.624 36.3046 239.736 36.589 239.791 36.8868C239.794 36.9099 239.789 36.9334 239.775 36.9527C239.762 36.9719 239.742 36.9855 239.72 36.9908C239.697 36.9961 239.673 36.9926 239.653 36.9811C239.632 36.9696 239.617 36.9509 239.61 36.9287L239.608 36.9232C239.395 36.4168 239.062 35.9693 238.639 35.6187C238.231 35.2393 237.793 34.8931 237.33 34.5833L237.782 34.4827C236.877 36.1586 235.55 37.5692 233.933 38.5752C233.147 39.1006 232.32 39.5618 231.46 39.9542C231.238 40.0479 231.021 40.1475 230.784 40.2278C230.671 40.2712 230.55 40.3115 230.422 40.3473C230.348 40.3723 230.273 40.3914 230.197 40.4044C230.054 40.4268 229.909 40.4249 229.768 40.3988C229.447 40.3243 229.144 40.1886 228.876 39.9991C228.655 39.8515 228.455 39.6987 228.264 39.5441C226.867 38.3074 225.57 36.9626 224.385 35.5222C223.182 34.1304 222.06 32.6942 220.938 31.2328L221.821 31.6245C221.233 31.6614 220.643 31.5975 220.077 31.4354C219.519 31.2922 218.99 31.0556 218.512 30.7357C218.218 30.5414 217.962 30.2953 217.757 30.0093C217.49 29.646 217.354 29.2032 217.37 28.7527C217.375 28.5327 217.42 28.3153 217.501 28.1109L217.607 27.8463L217.664 27.7191C217.741 27.5562 217.815 27.3486 217.885 27.1506C218.436 25.4207 218.893 23.6622 219.253 21.8828L219.259 22.26C218.872 20.3678 218.696 18.4385 218.734 16.5075C218.811 14.5678 219.192 12.6521 219.861 10.8297C220.025 10.3749 220.233 9.93586 220.426 9.49406C220.659 9.06872 220.853 8.62671 221.117 8.21987C221.604 7.38391 222.175 6.59983 222.821 5.87981C222.989 5.69989 223.15 5.52456 223.339 5.34648C223.531 5.18276 223.73 5.02912 223.938 4.8862C224.326 4.60965 224.722 4.34995 225.125 4.10105C225.928 3.60122 226.766 3.16729 227.611 2.7522C231.002 1.04603 234.787 0.272333 238.576 0.510406C240.488 0.67108 242.361 1.15094 244.115 1.93008C245.873 2.72244 247.501 3.77399 248.947 5.04963C248.974 5.07359 249 5.09986 249.023 5.12815L249.029 5.13639C249.769 6.08412 250.385 7.12278 250.862 8.22703C251.343 9.31187 251.698 10.4489 251.918 11.6153C252.159 12.7791 252.251 13.9691 252.191 15.1563C252.138 16.3389 251.953 17.512 251.64 18.6536L251.66 18.4294C251.731 19.3662 251.888 20.2946 252.127 21.2031C252.359 22.1248 252.674 23.0238 253.067 23.889C253.467 24.7531 253.971 25.5649 254.568 26.3062C255.184 27.0483 255.907 27.6951 256.713 28.2255L256.719 28.2295C256.738 28.2427 256.752 28.2627 256.757 28.2854C256.762 28.3081 256.759 28.332 256.747 28.3522C256.736 28.3725 256.717 28.3876 256.695 28.3948C256.672 28.4018 256.648 28.4004 256.627 28.3906L256.627 28.3905Z" fill="#001D62"/>
<path d="M222.73 27.3404C222.568 27.3406 222.408 27.2985 222.268 27.2183C222.127 27.138 222.01 27.0224 221.928 26.8828L219.359 22.5284C219.297 22.4232 219.256 22.3067 219.239 22.1855C219.221 22.0644 219.228 21.941 219.258 21.8224C219.289 21.7039 219.342 21.5925 219.416 21.4946C219.489 21.3968 219.581 21.3144 219.687 21.2522C219.792 21.19 219.909 21.1492 220.03 21.1321C220.151 21.1151 220.274 21.1221 220.393 21.1528C220.511 21.1835 220.623 21.2372 220.72 21.311C220.818 21.3848 220.9 21.477 220.962 21.5826L223.53 25.937C223.614 26.0782 223.658 26.239 223.659 26.403C223.661 26.5671 223.618 26.7285 223.537 26.871C223.456 27.0135 223.338 27.1319 223.197 27.2144C223.055 27.2968 222.894 27.3403 222.73 27.3404Z" fill="#001D62"/>
<path d="M220.725 23.4767C220.626 23.4766 220.529 23.4449 220.45 23.3863C220.37 23.3277 220.311 23.2452 220.281 23.1508C220.252 23.0564 220.253 22.955 220.285 22.8613C220.316 22.7676 220.377 22.6864 220.458 22.6297C221.808 21.6882 233.725 13.4502 236.259 13.552C236.32 13.5547 236.38 13.5695 236.436 13.5955C236.491 13.6214 236.541 13.658 236.582 13.7031C236.623 13.7482 236.655 13.8011 236.676 13.8585C236.697 13.916 236.706 13.977 236.703 14.038C236.696 14.1607 236.641 14.2757 236.55 14.3586C236.459 14.4414 236.34 14.4856 236.217 14.4817C236.206 14.4809 236.194 14.4809 236.181 14.4809C234.426 14.4809 225.955 19.9305 220.991 23.3925C220.913 23.4471 220.82 23.4765 220.725 23.4767Z" fill="#001D62"/>
<path d="M234.898 16.2498C234.882 15.5551 235.106 14.876 235.531 14.3267C235.66 14.1774 235.817 14.0553 235.993 13.9677C236.17 13.8802 236.362 13.8288 236.558 13.8168L236.858 13.812C236.954 13.823 237.043 13.8506 237.137 13.8706C237.319 13.9058 237.496 13.9677 237.661 14.0541C237.984 14.2021 238.289 14.386 238.571 14.6025C238.829 14.8296 239.1 15.0362 239.347 15.2846C239.839 15.7872 240.246 16.3672 240.551 17.0015C241.133 18.278 241.298 19.7057 241.023 21.0815C240.897 21.7658 240.632 22.4169 240.243 22.9937C240.044 23.2931 239.769 23.5352 239.447 23.6957C239.287 23.777 239.104 23.8025 238.927 23.7684C238.75 23.7342 238.59 23.6423 238.471 23.5071C238.599 23.5902 238.75 23.6313 238.903 23.6248C239.055 23.6182 239.202 23.5643 239.322 23.4705C239.554 23.2797 239.736 23.0351 239.852 22.7581C240.103 22.1935 240.257 21.5899 240.305 20.9735C240.424 19.749 240.218 18.5147 239.708 17.3951C239.455 16.8448 239.118 16.3368 238.71 15.8891C238.511 15.6592 238.272 15.4526 238.055 15.2306C237.829 15.0357 237.588 14.8583 237.335 14.7C237.127 14.5291 236.867 14.432 236.598 14.4238C236.329 14.4156 236.064 14.4969 235.845 14.6548C235.388 15.0885 235.06 15.6407 234.898 16.2498Z" fill="#001D62"/>
<path d="M223.597 33.4374C224.309 33.3583 225.015 33.2253 225.707 33.0395C226.025 32.9511 226.333 32.8307 226.626 32.6802C226.942 32.5367 227.237 32.3349 227.622 32.1394C227.559 32.5603 227.366 32.9508 227.069 33.2556C226.772 33.576 226.393 33.8093 225.974 33.9304C225.562 34.0512 225.127 34.0718 224.705 33.9905C224.289 33.9199 223.903 33.7274 223.597 33.4374Z" fill="#001D62"/>
<path d="M220.724 20.2426C220.691 19.605 220.899 18.9783 221.308 18.4876C221.714 17.9821 222.249 17.5959 222.857 17.3698C223.446 17.1532 224.071 17.0531 224.698 17.0753C225.001 17.098 225.304 17.1369 225.603 17.1919C225.898 17.2675 226.187 17.3631 226.468 17.4779C226.18 17.5521 225.887 17.6091 225.591 17.6487C225.306 17.7008 225.027 17.7629 224.751 17.7993C224.22 17.9035 223.698 18.05 223.191 18.2374C222.162 18.6011 221.29 19.3096 220.724 20.2426Z" fill="#001D62"/>
<path d="M224.627 24.2187C224.898 24.2093 225.155 24.0949 225.344 23.8996C225.532 23.7044 225.638 23.4435 225.638 23.172C225.638 22.9005 225.532 22.6396 225.344 22.4443C225.155 22.249 224.898 22.1346 224.627 22.1252C224.355 22.1346 224.098 22.249 223.91 22.4443C223.721 22.6396 223.616 22.9005 223.616 23.172C223.616 23.4435 223.721 23.7044 223.91 23.8996C224.098 24.0949 224.355 24.2093 224.627 24.2187Z" fill="#001D62"/>
<path d="M245.729 50.7495C244.664 49.8628 243.457 49.1639 242.157 48.6829C240.876 48.2024 239.546 47.8622 238.191 47.6684C236.828 47.4635 235.453 47.3503 234.075 47.3296L231.985 47.3393C231.288 47.3712 230.587 47.4059 229.874 47.4001C230.553 47.2022 231.244 47.045 231.937 46.8851C232.637 46.7789 233.342 46.6717 234.051 46.604C235.48 46.4894 236.917 46.5383 238.335 46.7496C239.764 46.959 241.153 47.3882 242.452 48.0222C243.76 48.6342 244.889 49.5736 245.729 50.7495Z" fill="#001D62"/>
<path d="M193.516 88.919C193.914 87.6006 194.442 86.3251 195.093 85.1117C195.728 83.884 196.472 82.7154 197.315 81.6201C198.153 80.5055 199.132 79.5046 200.229 78.6425C201.313 77.7572 202.598 77.1505 203.971 76.8755C202.769 77.4766 201.665 78.2589 200.7 79.1951C199.737 80.1189 198.851 81.12 198.051 82.1883C196.399 84.3022 194.987 86.6029 193.516 88.919Z" fill="#001D62"/>
<path d="M226.468 103.225C226.887 103.331 227.323 103.353 227.75 103.29C228.175 103.243 228.593 103.148 228.996 103.008L229.59 102.773C229.785 102.689 229.968 102.574 230.156 102.476C230.531 102.275 230.89 102.044 231.229 101.786C232.59 100.752 233.802 99.535 234.831 98.1691C235.329 97.4711 235.835 96.7789 236.311 96.0662C236.758 95.3315 237.238 94.6196 237.657 93.8685L238.905 91.608L240.041 89.285C241.543 86.1631 243.012 83.0067 244.565 79.9016L246.889 75.2396C247.695 73.701 248.471 72.1484 249.301 70.6233C248.66 72.2426 247.965 73.8347 247.299 75.4407L245.209 80.2124C243.808 83.3914 242.37 86.5411 240.88 89.6852C239.428 92.8799 237.582 95.8803 235.385 98.6165C234.256 99.9759 232.942 101.17 231.481 102.163C231.108 102.402 230.717 102.611 230.311 102.789C230.107 102.875 229.911 102.978 229.701 103.049L229.066 103.242C228.218 103.499 227.313 103.493 226.468 103.225Z" fill="#001D62"/>
<path d="M225.609 82.2539C225.553 82.254 225.498 82.2438 225.446 82.224L221.281 80.6602C221.166 80.6165 221.073 80.529 221.022 80.4168C220.972 80.3046 220.968 80.1769 221.011 80.0617C221.054 79.9465 221.141 79.8531 221.253 79.802C221.365 79.7509 221.493 79.7463 221.608 79.7891L225.773 81.3528C225.875 81.3912 225.96 81.4642 226.014 81.559C226.067 81.6538 226.086 81.7644 226.067 81.8716C226.047 81.9788 225.991 82.0758 225.907 82.1457C225.824 82.2155 225.718 82.2539 225.609 82.254V82.2539Z" fill="#001D62"/>
<path d="M191.407 81.0952C190.406 81.4079 189.345 81.478 188.311 81.2997C187.262 81.1093 186.258 80.7261 185.348 80.1697C184.446 79.6197 183.616 78.9598 182.876 78.2052C182.135 77.4431 181.477 76.6045 180.913 75.7033L181.859 76.0961C179.938 76.5891 177.956 76.8032 175.974 76.7319C174.96 76.7158 173.954 76.5452 172.992 76.2259C172.478 76.0516 172.023 75.7378 171.677 75.3194C171.497 75.1046 171.36 74.8573 171.274 74.591C171.21 74.31 171.21 74.0184 171.273 73.7374C171.413 73.2235 171.684 72.7551 172.061 72.3788C172.396 72.0065 172.763 71.665 173.159 71.3585C173.926 70.7422 174.732 70.1774 175.573 69.6678C177.23 68.6426 178.956 67.7349 180.739 66.9512C181.637 66.5832 182.478 66.1536 183.51 65.837C184.515 65.5308 185.558 65.3679 186.609 65.3531C187.647 65.3487 188.681 65.4875 189.681 65.7657C190.67 66.0126 191.632 66.3594 192.55 66.8008C194.34 67.6756 195.999 68.7964 197.479 70.1305C198.953 71.4191 200.261 72.8857 201.373 74.4966C201.386 74.5152 201.392 74.5379 201.389 74.5604C201.386 74.5829 201.376 74.6037 201.359 74.6189C201.342 74.6341 201.32 74.6426 201.297 74.6429C201.275 74.6432 201.253 74.6353 201.236 74.6206L201.231 74.6168C198.436 72.085 195.253 70.0187 191.802 68.4968C190.971 68.1426 190.106 67.8726 189.221 67.691C188.365 67.4602 187.484 67.3393 186.598 67.331C185.725 67.3037 184.851 67.3956 184.002 67.6042C183.18 67.8028 182.273 68.1933 181.377 68.51C179.598 69.189 177.806 69.8341 176.067 70.5947C175.207 70.9788 174.374 71.4221 173.575 71.9214C173.191 72.1763 172.832 72.4662 172.501 72.7873C172.185 73.0799 171.951 73.451 171.824 73.8629C171.773 74.0541 171.775 74.2556 171.83 74.4457C171.885 74.6358 171.991 74.8073 172.136 74.9418C172.418 75.2594 172.794 75.4777 173.21 75.564C174.107 75.7464 175.029 75.7707 175.934 75.6358C177.781 75.3478 179.611 74.9642 181.418 74.4866C181.597 74.4451 181.785 74.4607 181.954 74.5312C182.124 74.6016 182.267 74.7234 182.364 74.8795C182.854 75.6777 183.412 76.4315 184.032 77.1323C184.647 77.8489 185.334 78.5007 186.082 79.0774C186.824 79.654 187.65 80.1133 188.532 80.4394C189.444 80.7677 190.407 80.9277 191.376 80.9118C191.401 80.9113 191.425 80.9206 191.443 80.9378C191.461 80.9551 191.472 80.9787 191.472 81.0037C191.472 81.0238 191.466 81.0434 191.454 81.0598C191.443 81.0763 191.426 81.0886 191.407 81.0952Z" fill="#001D62"/>
<path d="M207.141 146.528L209.23 151.633C209.24 151.656 209.243 151.682 209.238 151.707C209.233 151.732 209.221 151.755 209.204 151.773C209.186 151.792 209.164 151.805 209.139 151.81C209.115 151.816 209.089 151.815 209.065 151.806L209.057 151.803C208.008 151.394 206.91 151.126 205.79 151.007C204.677 150.913 203.556 150.997 202.469 151.255C200.308 151.863 198.344 153.03 196.776 154.637C195.188 156.235 193.817 158.035 192.699 159.991C191.551 161.932 190.585 163.975 189.814 166.094L189.812 166.099C189.786 166.171 189.739 166.234 189.676 166.279C189.613 166.323 189.538 166.348 189.461 166.349C189.384 166.35 189.309 166.327 189.245 166.284C189.181 166.241 189.132 166.179 189.105 166.107L185.048 155.627L181.06 145.12L181.8 144.941L183.228 159.47C183.689 164.315 184.191 169.155 184.696 173.995C184.699 174.027 184.693 174.059 184.677 174.087C183.58 175.812 181.922 177.105 179.982 177.747C178.081 178.402 176.094 178.773 174.086 178.85C172.087 178.945 170.084 178.898 168.092 178.71C166.098 178.531 164.117 178.234 162.158 177.821C162.111 177.811 162.069 177.787 162.036 177.753C162.003 177.718 161.982 177.674 161.974 177.627L161.973 177.621C160.834 170.272 159.877 162.9 159.103 155.505C158.35 148.107 157.776 140.687 157.584 133.24C157.569 131.378 157.551 129.515 157.578 127.651L157.671 124.855L157.723 123.457L157.838 122.059L158.074 119.265L158.497 116.481C158.644 115.551 158.848 114.632 159.107 113.727C159.226 113.271 159.33 112.811 159.462 112.358L159.959 111.029L160.463 109.703C160.671 109.278 160.901 108.862 161.119 108.442C161.346 108.025 161.55 107.596 161.795 107.191L162.614 106.024C163.165 105.249 163.779 104.522 164.452 103.85C164.789 103.514 165.146 103.199 165.519 102.904C165.871 102.584 166.249 102.293 166.649 102.036L167.846 101.261L169.122 100.627C169.551 100.424 169.991 100.247 170.441 100.097C170.883 99.9244 171.336 99.7833 171.797 99.6745C173.631 99.1722 175.538 98.9902 177.434 99.1364L177.129 99.3098C177.526 98.4549 178.018 97.6471 178.594 96.9014C179.185 96.1708 179.854 95.5062 180.587 94.9193C182.075 93.7883 183.75 92.9273 185.536 92.3754C187.305 91.8299 189.129 91.4814 190.975 91.3362C192.812 91.1754 194.66 91.1811 196.496 91.3532C196.508 91.3544 196.519 91.3605 196.527 91.37C196.535 91.3795 196.539 91.3917 196.538 91.4039C196.536 91.4162 196.53 91.4273 196.52 91.4351C196.51 91.4428 196.498 91.4466 196.486 91.4457C194.657 91.3279 192.821 91.3757 191 91.5884C189.184 91.7845 187.396 92.1802 185.666 92.7685C183.943 93.3337 182.33 94.1946 180.902 95.3126C180.209 95.8849 179.58 96.5301 179.025 97.2371C178.488 97.9546 178.033 98.7297 177.668 99.5479C177.643 99.6026 177.602 99.6485 177.551 99.6796C177.5 99.7108 177.44 99.7257 177.38 99.7225L177.363 99.7214C173.705 99.5155 170.083 100.551 167.087 102.661C164.164 104.854 161.981 107.888 160.831 111.357L160.354 112.638C160.228 113.076 160.129 113.524 160.015 113.966C159.764 114.847 159.568 115.742 159.428 116.647L159.021 119.373L158.796 122.131L158.686 123.51L158.639 124.896L158.553 127.668C158.529 129.517 158.561 131.37 158.567 133.221C158.704 140.63 159.237 148.036 159.92 155.425C160.591 162.815 161.436 170.189 162.455 177.547L162.271 177.347C164.203 177.786 166.16 178.111 168.131 178.32C170.101 178.543 172.087 178.61 174.068 178.52C176.046 178.457 178.004 178.104 179.88 177.471C181.762 176.868 183.369 175.615 184.412 173.936L184.393 174.028C183.857 169.191 183.318 164.355 182.738 159.523L181.036 145.023C181.025 144.931 181.049 144.837 181.102 144.76C181.155 144.684 181.234 144.629 181.325 144.606C181.416 144.584 181.511 144.595 181.594 144.638C181.677 144.681 181.741 144.753 181.775 144.84L181.777 144.845L185.829 155.327L189.809 165.837L189.1 165.851C189.903 163.689 190.906 161.607 192.095 159.631C193.269 157.64 194.707 155.817 196.369 154.211C198.034 152.57 200.1 151.395 202.362 150.805C203.5 150.556 204.672 150.5 205.83 150.638C206.975 150.796 208.094 151.106 209.158 151.559L208.984 151.729L207.054 146.562C207.05 146.551 207.051 146.538 207.055 146.527C207.06 146.516 207.07 146.507 207.081 146.503C207.092 146.498 207.105 146.498 207.116 146.503C207.127 146.508 207.136 146.517 207.141 146.528H207.141Z" fill="#001D62"/>
<path d="M181.418 144.982L182.247 152.649L177.12 123.573L182.72 148.378L181.418 144.982Z" fill="#001D62"/>
<path d="M219.395 104.034C209.05 104.034 178.781 100.08 177.338 99.8904C177.278 99.8826 177.219 99.8629 177.166 99.8325C177.113 99.802 177.066 99.7614 177.029 99.7129C176.992 99.6645 176.964 99.6091 176.948 99.55C176.933 99.4909 176.928 99.4293 176.936 99.3686C176.944 99.3079 176.964 99.2494 176.995 99.1964C177.025 99.1434 177.066 99.097 177.115 99.0598C177.163 99.0226 177.219 98.9953 177.278 98.9795C177.337 98.9638 177.399 98.9599 177.459 98.968C177.855 99.0192 217.155 104.15 222.048 102.924C222.107 102.909 222.169 102.906 222.23 102.914C222.29 102.923 222.348 102.944 222.401 102.975C222.454 103.006 222.5 103.048 222.536 103.097C222.573 103.146 222.599 103.202 222.614 103.261C222.629 103.321 222.632 103.382 222.623 103.443C222.614 103.503 222.593 103.562 222.562 103.614C222.53 103.666 222.489 103.712 222.44 103.749C222.39 103.785 222.334 103.811 222.275 103.826C221.325 103.997 220.36 104.067 219.395 104.034Z" fill="#001D62"/>
<path d="M289.94 52.9819C289.94 52.9819 256.446 45.1704 248.185 85.1415C239.924 125.105 237.817 122.204 237.817 122.204C222.742 144.056 193.341 130.652 186.669 127.212C185.911 126.801 185.046 126.631 184.189 126.723C183.333 126.815 182.524 127.166 181.871 127.729C180.08 129.371 180.357 132.024 180.357 132.024L180.484 135.03C180.507 135.515 180.634 135.988 180.856 136.419C181.079 136.85 181.392 137.228 181.774 137.527C192.643 146.162 211.992 147.954 229.504 147.04C230.508 146.987 231.513 146.927 232.502 146.852C247.637 145.795 260.914 142.827 265.381 140.743C275.427 136.05 278.328 138.059 293.958 96.746C309.595 55.4405 289.94 52.9819 289.94 52.9819ZM296.604 63.9941L296.597 63.9866C292.204 61.5933 287.148 60.7083 282.204 61.4677C277.346 62.2849 273.095 65.1261 269.842 68.7767C268.202 70.6229 266.741 72.621 265.479 74.7439C264.188 76.874 263.041 79.0879 262.046 81.3708C260.081 85.9813 258.441 90.723 257.135 95.5615C256.498 97.9906 255.831 100.427 255.261 102.886C254.961 104.115 254.609 105.329 254.294 106.551C253.979 107.773 253.642 108.988 253.297 110.202C252.024 115.107 250.444 119.926 248.567 124.633C248.095 125.81 247.525 126.949 246.978 128.096C246.363 129.221 245.801 130.36 245.104 131.432C243.788 133.644 242.215 135.692 240.418 137.534C238.616 139.418 236.394 140.849 233.934 141.71C233.418 141.877 232.889 142.002 232.352 142.085C231.454 142.226 230.541 142.243 229.638 142.137C228.503 141.998 227.409 141.62 226.43 141.028C226.421 141.022 226.414 141.015 226.408 141.007C226.402 140.999 226.398 140.99 226.396 140.98C226.394 140.97 226.394 140.96 226.396 140.95C226.398 140.94 226.402 140.931 226.408 140.923C226.416 140.908 226.43 140.896 226.447 140.891C226.464 140.885 226.481 140.886 226.498 140.893L226.505 140.9C227.515 141.364 228.609 141.619 229.721 141.65C229.848 141.657 229.976 141.665 230.103 141.665C230.823 141.656 231.54 141.569 232.24 141.402C232.728 141.287 233.209 141.142 233.679 140.968C235.942 140.014 237.96 138.564 239.586 136.725C241.252 134.893 242.719 132.89 243.964 130.75C244.624 129.693 245.186 128.576 245.786 127.489C246.318 126.357 246.933 125.27 247.428 124.123C249.567 119.576 251.371 114.878 252.825 110.067C253.575 107.661 254.152 105.21 254.744 102.766C255.314 100.307 255.786 97.8405 256.341 95.3668C257.372 90.3946 258.848 85.5248 260.749 80.8161C262.625 76.0302 265.299 71.597 268.658 67.7048C270.398 65.7697 272.432 64.1203 274.685 62.8171C276.951 61.52 279.445 60.6676 282.031 60.3059C287.18 59.7228 292.37 60.9815 296.679 63.859C296.688 63.8644 296.695 63.8714 296.701 63.8796C296.706 63.8878 296.71 63.897 296.713 63.9068C296.715 63.9166 296.715 63.9267 296.713 63.9366C296.711 63.9464 296.707 63.9558 296.702 63.9641C296.691 63.9794 296.676 63.9906 296.658 63.9961C296.641 64.0015 296.621 64.0008 296.604 63.9941H296.604Z" fill="#001D62"/>
<path d="M263.686 198.613C263.67 199.383 263.426 200.131 262.986 200.762C262.553 201.384 262.03 201.938 261.434 202.407C260.249 203.337 258.957 204.122 257.585 204.744C254.845 205.993 251.988 206.966 249.056 207.649C243.199 209.039 237.186 209.664 231.168 209.509C225.171 209.352 219.201 208.637 213.337 207.373C210.395 206.778 207.512 205.92 204.723 204.811C203.309 204.245 201.968 203.51 200.732 202.62C200.092 202.156 199.529 201.594 199.062 200.956C198.56 200.275 198.272 199.459 198.235 198.613C198.235 197.756 198.489 196.918 198.964 196.204C199.41 195.53 199.957 194.929 200.586 194.423C201.793 193.446 203.128 192.641 204.555 192.028C207.339 190.811 210.244 189.894 213.222 189.292C219.124 188.061 225.139 187.461 231.168 187.5C237.193 187.472 243.2 188.16 249.062 189.549C251.993 190.241 254.85 191.219 257.591 192.468C258.963 193.092 260.256 193.878 261.441 194.811C262.036 195.281 262.559 195.837 262.99 196.461C263.43 197.094 263.672 197.843 263.686 198.613ZM263.5 198.613C263.473 197.129 262.419 195.895 261.269 195.027C260.077 194.155 258.77 193.453 257.385 192.942C254.612 191.918 251.74 191.183 248.816 190.749C242.975 189.869 237.075 189.446 231.168 189.484C225.269 189.457 219.38 189.967 213.573 191.006C210.695 191.531 207.872 192.327 205.143 193.382C203.81 193.906 202.546 194.588 201.378 195.415C200.261 196.234 199.3 197.341 199.253 198.613C199.214 199.889 200.136 201.1 201.231 201.994C202.37 202.909 203.629 203.662 204.975 204.231C207.699 205.395 210.544 206.25 213.458 206.782C216.374 207.329 219.324 207.678 222.287 207.827C225.246 208.008 228.211 208.025 231.168 207.96C237.079 207.871 242.976 207.385 248.822 206.505C251.745 206.062 254.617 205.322 257.391 204.298C258.777 203.786 260.084 203.082 261.275 202.208C262.425 201.336 263.477 200.097 263.5 198.613Z" fill="#001D62"/>
<path d="M182.854 175.988C183.343 176.882 183.705 177.841 183.929 178.836C184.187 179.818 184.386 180.813 184.556 181.812C184.888 183.81 185.158 185.817 185.346 187.831C185.434 188.848 185.533 189.824 185.582 190.876C185.607 191.938 185.426 192.996 185.05 193.99C184.859 194.491 184.611 194.968 184.308 195.41C184.002 195.838 183.667 196.244 183.306 196.626C182.586 197.388 181.755 198.037 180.841 198.55C179.023 199.545 177.012 200.138 174.946 200.289C173.923 200.378 172.894 200.354 171.877 200.216C171.366 200.154 170.861 200.049 170.367 199.903C169.877 199.751 169.406 199.58 168.928 199.407C165.108 198.019 161.634 195.907 157.877 194.465C154.145 192.978 150.293 191.725 146.594 190.04C144.706 189.23 142.912 188.216 141.245 187.015C140.404 186.386 139.645 185.653 138.986 184.835C138.609 184.374 138.365 183.818 138.281 183.228C138.238 182.925 138.246 182.617 138.303 182.316C138.369 182.025 138.472 181.744 138.609 181.479C139.184 180.523 140.031 179.76 141.043 179.29C141.993 178.817 143.016 178.505 144.068 178.368C144.59 178.299 145.115 178.265 145.641 178.266C146.163 178.288 146.702 178.327 147.179 178.366C148.162 178.449 149.165 178.449 150.165 178.435C154.175 178.354 158.197 177.966 162.207 177.538C162.22 177.537 162.232 177.54 162.242 177.548C162.251 177.555 162.258 177.566 162.259 177.579C162.26 177.59 162.257 177.602 162.25 177.612C162.243 177.621 162.233 177.628 162.221 177.63C158.246 178.392 154.228 178.904 150.189 179.162C149.173 179.204 148.156 179.234 147.125 179.176C146.596 179.148 146.128 179.129 145.642 179.121C145.159 179.133 144.678 179.178 144.201 179.255C143.254 179.407 142.336 179.705 141.481 180.137C140.655 180.528 139.963 181.154 139.49 181.936C139.297 182.3 139.22 182.714 139.27 183.124C139.32 183.533 139.493 183.917 139.768 184.224C140.379 184.976 141.074 185.655 141.839 186.249C143.432 187.432 145.15 188.436 146.962 189.245C150.588 190.958 154.382 192.332 158.078 193.997C159.929 194.815 161.727 195.748 163.526 196.661C165.297 197.616 167.14 198.433 169.037 199.104C169.963 199.47 170.933 199.717 171.922 199.837C172.911 199.925 173.908 199.904 174.893 199.773C176.857 199.541 178.749 198.897 180.448 197.883C181.28 197.382 182.04 196.768 182.703 196.058C183.376 195.376 183.915 194.572 184.29 193.689C184.645 192.797 184.823 191.844 184.816 190.883C184.788 189.92 184.705 188.884 184.635 187.891C184.479 185.885 184.332 183.877 184.073 181.884C183.911 179.884 183.474 177.916 182.774 176.036L182.772 176.031C182.767 176.02 182.766 176.008 182.77 175.997C182.774 175.986 182.782 175.976 182.793 175.971C182.803 175.965 182.815 175.964 182.827 175.967C182.838 175.97 182.848 175.978 182.854 175.988L182.854 175.988Z" fill="#001D62"/>
<path d="M165.877 178.244C165.969 179.32 166.126 180.388 166.348 181.444C166.55 182.485 166.856 183.503 167.261 184.483C167.618 185.424 168.236 186.245 169.041 186.848C169.431 187.11 169.88 187.272 170.347 187.321C170.831 187.358 171.317 187.307 171.784 187.171C172.772 186.878 173.705 186.423 174.544 185.825C175.416 185.254 176.194 184.553 176.852 183.746C178.198 182.087 178.968 180.035 179.048 177.9C179.326 180.125 178.748 182.371 177.43 184.185C176.085 186.02 174.191 187.381 172.022 188.07C171.444 188.228 170.843 188.28 170.247 188.224C169.634 188.155 169.049 187.931 168.546 187.574C167.622 186.852 166.94 185.867 166.588 184.75C165.911 182.652 165.669 180.439 165.877 178.244Z" fill="#001D62"/>
<path d="M149.821 184.116C149.567 183.527 149.481 182.879 149.572 182.244C149.65 181.59 149.884 180.965 150.256 180.422C150.625 179.879 151.119 179.432 151.697 179.119C151.975 178.964 152.27 178.84 152.576 178.749C152.881 178.672 153.192 178.622 153.507 178.602C153.265 178.817 153.012 178.974 152.779 179.158C152.557 179.356 152.312 179.507 152.114 179.713C152.013 179.812 151.909 179.906 151.803 179.995L151.526 180.303C151.34 180.501 151.172 180.716 151.025 180.944C150.404 181.904 149.993 182.985 149.821 184.116Z" fill="#001D62"/>
<path d="M154.845 184.115C154.587 183.537 154.506 182.895 154.613 182.27C154.707 181.642 154.919 181.038 155.239 180.49C155.562 179.953 155.971 179.472 156.449 179.067C156.687 178.872 156.937 178.692 157.199 178.529C157.469 178.38 157.75 178.251 158.039 178.143C157.872 178.396 157.692 178.639 157.5 178.873L156.976 179.567C156.64 180.015 156.328 180.48 156.041 180.961C155.456 181.932 155.051 183 154.845 184.115Z" fill="#001D62"/>
<path d="M163.601 201.626C161.859 201.059 160.178 200.317 158.586 199.411C155.869 197.858 151.124 195.187 149.784 194.666C145.56 193.01 140.546 191.298 138.74 188.525C135.661 183.799 138.739 181.358 138.739 181.358C139.713 186.558 145.802 189.475 154.511 192.824C163.219 196.173 164.299 197.755 170.253 199.69C173.417 200.723 180.59 200.109 183.967 195.169C184.208 194.817 184.414 194.444 184.582 194.052L185.2 189.197C189.771 207.323 170.3 203.794 163.601 201.626Z" fill="#001D62"/>
<path d="M190.999 187.706C190.068 187.402 189.257 186.813 188.68 186.023C188.102 185.233 187.788 184.282 187.781 183.303C187.697 181.901 188.064 180.508 188.827 179.329C189.591 178.149 190.711 177.245 192.025 176.747C196.74 174.761 198.973 168.994 199.814 166.14C200.517 163.714 201.605 161.416 203.037 159.334C205.384 155.95 209.068 152.565 213.563 154.983C215.121 155.871 216.304 157.295 216.891 158.989C218.017 162.009 219.821 164.99 214.937 171.633C214.145 172.695 213.289 173.709 212.374 174.667C210.958 176.196 209.849 177.982 209.107 179.929C208.429 181.827 201.786 191.137 190.999 187.706Z" fill="#001D62"/>
<path d="M191.889 160.687C192.36 163.096 192.357 165.573 191.879 167.98C191.429 170.403 190.593 172.739 189.402 174.897C188.808 175.959 188.155 176.987 187.445 177.976C187.131 178.457 186.882 178.978 186.705 179.525C186.55 180.082 186.486 180.659 186.516 181.236C186.514 182.424 186.726 183.602 187.142 184.715C187.325 185.283 187.653 185.793 188.093 186.196C188.533 186.598 189.071 186.879 189.653 187.01C189.037 186.96 188.452 186.716 187.983 186.313C187.52 185.899 187.146 185.394 186.884 184.831C186.366 183.706 186.067 182.493 186.005 181.256C185.95 180.624 185.986 179.987 186.113 179.366C186.258 178.746 186.49 178.149 186.802 177.594C187.44 176.508 188.071 175.553 188.608 174.474C189.712 172.367 190.55 170.129 191.102 167.815C191.682 165.485 191.947 163.088 191.889 160.687Z" fill="#001D62"/>
<path d="M207.116 151.041C207.559 151.069 207.993 151.177 208.398 151.358C208.798 151.527 209.176 151.743 209.523 152.003C209.878 152.266 210.191 152.581 210.453 152.936C210.738 153.295 210.913 153.729 210.958 154.185C210.592 153.906 210.264 153.685 209.939 153.448L208.964 152.745C208.281 152.254 207.66 151.682 207.116 151.041Z" fill="#001D62"/>
<path d="M195.102 90.1791C195.104 90.1934 195.103 90.2078 195.098 90.2215C195.094 90.2353 195.088 90.2481 195.079 90.2592C195.07 90.2704 195.058 90.2796 195.046 90.2864C195.033 90.2933 195.019 90.2975 195.005 90.299L165.087 94.497L135.851 98.4702L136.045 130.63L136.135 147.055L136.18 163.479C136.182 163.752 136.084 164.015 135.907 164.222C135.729 164.429 135.483 164.564 135.213 164.604H135.206L95.4673 170.421L55.7061 176.096H55.6986C55.4829 176.127 55.2629 176.09 55.0689 175.991L27.7294 162.355L0.427384 148.644H0.419892C0.292373 148.58 0.185421 148.481 0.111197 148.359C0.0369726 148.237 -0.0015416 148.097 4.72458e-05 147.954L0.419892 113.86C0.577317 102.488 0.592316 91.1236 0.689673 79.7591C0.690406 79.6729 0.722956 79.59 0.78109 79.5263C0.839225 79.4626 0.918839 79.4226 1.00464 79.4141L23.2465 77.0603L24.1686 76.9629L24.371 76.9404C24.2511 77.2252 24.1311 77.5102 24.0187 77.8024L23.3664 77.87L1.38694 80.0739C1.39444 91.341 1.3194 102.601 1.38694 113.86L1.53687 147.482L28.5916 160.616L55.7212 173.884L95.13 168.075L133.909 162.497L133.954 147.055L134.051 130.63L134.254 97.7804V97.7731C134.254 97.5814 134.324 97.3965 134.451 97.2529C134.578 97.1093 134.753 97.0171 134.943 96.9935L164.952 93.4777L194.983 90.0818C194.997 90.0803 195.011 90.0817 195.025 90.0857C195.039 90.0898 195.051 90.0966 195.063 90.1056C195.074 90.1147 195.083 90.1258 195.09 90.1384C195.097 90.151 195.101 90.1648 195.102 90.1791Z" fill="#001D62"/>
<path d="M25.2031 76.8503C25.308 77.1203 25.4205 77.3902 25.5254 77.6525C25.1206 77.69 24.7159 77.7351 24.3111 77.7724C24.4685 77.4801 24.6259 77.1878 24.7757 76.8954L25.2031 76.8503Z" fill="#001D62"/>
<path d="M25.7728 76.7903C26.4399 76.723 27.1072 76.6554 27.7743 76.5806C27.6544 76.8728 27.5344 77.1728 27.4145 77.4651C26.9946 77.5026 26.575 77.5476 26.1551 77.5925C26.0278 77.3227 25.9002 77.0603 25.7728 76.7903Z" fill="#001D62"/>
<path d="M28.4642 76.8652L28.6589 77.3376C28.524 77.3524 28.3891 77.3674 28.2617 77.3824C28.3291 77.21 28.3966 77.0376 28.4642 76.8652Z" fill="#001D62"/>
<path d="M31.0354 76.228H31.1102L30.7729 77.1353C30.3082 77.1801 29.8433 77.2251 29.3861 77.2701L29.0787 76.4381C29.731 76.3706 30.383 76.2956 31.0354 76.228Z" fill="#001D62"/>
<path d="M31.515 76.603L31.6725 77.0454C31.5676 77.0604 31.4551 77.0679 31.3502 77.0754L31.515 76.603Z" fill="#001D62"/>
<path d="M34.3487 76.1006L34.0414 76.8202L32.1523 77.0003L31.8899 76.2132C32.707 76.1906 33.5315 76.1531 34.3487 76.1006Z" fill="#001D62"/>
<path d="M34.5737 76.1758L34.8061 76.7455C34.6487 76.7605 34.4913 76.7754 34.3337 76.7903L34.5737 76.1758Z" fill="#001D62"/>
<path d="M224.368 69.2567C224.362 69.2842 224.345 69.3081 224.321 69.3234C224.298 69.3387 224.269 69.3443 224.241 69.339L205.245 65.3286C198.948 63.9942 192.659 62.6424 186.377 61.2731L163.31 63.8591L140.153 66.3405L116.99 68.8143L93.8181 71.1608C86.0892 71.9478 78.3603 72.6674 70.6316 73.3947L47.4375 75.5611C43.8692 75.8911 40.3034 76.226 36.74 76.5657C36.1628 76.6181 35.5858 76.6706 35.0085 76.7306L34.7686 76.0709C35.4582 76.0185 36.148 75.9585 36.8451 75.8685C36.4328 75.8161 36.0129 75.7711 35.6006 75.7261C36.0354 75.6811 36.4628 75.6287 36.89 75.5837C40.3684 75.1939 43.8443 74.8015 47.3176 74.4067L70.4665 71.8054C78.1804 70.9284 85.8943 70.0587 93.6156 69.2642L116.787 66.8279L139.966 64.5264L163.145 62.2324L186.332 60.051H186.347C186.407 60.0482 186.467 60.0533 186.527 60.066C192.831 61.5353 199.128 63.0321 205.418 64.5564L224.286 69.1216C224.301 69.1246 224.314 69.1306 224.326 69.1392C224.339 69.1477 224.349 69.1586 224.356 69.1713C224.364 69.184 224.369 69.1981 224.371 69.2128C224.373 69.2274 224.372 69.2424 224.368 69.2567Z" fill="#001D62"/>
<path d="M66.8309 141.402V167.685L125.783 160.091V134.633L66.8309 141.402ZM100.325 152.632C95.977 152.632 95.9845 145.885 100.325 145.885C104.673 145.885 104.665 152.632 100.325 152.632V152.632Z" fill="#001D62"/>
<path d="M66.8309 110.405V136.687L125.783 129.093V103.635L66.8309 110.405ZM100.325 121.634C95.977 121.634 95.9845 114.887 100.325 114.887C104.673 114.887 104.665 121.634 100.325 121.634V121.634Z" fill="#001D62"/>
<path d="M197.291 70.8001L197.3 70.7993C198.537 70.4829 199.784 70.2232 201.026 69.934C202.272 69.6648 203.518 69.4007 204.767 69.1547C204.833 69.1416 204.902 69.1492 204.963 69.1765L204.981 69.1842C207.6 70.3377 210.193 71.5444 212.776 72.7739C215.355 74.0107 217.924 75.2706 220.467 76.5825L220.488 76.5931C220.564 76.6321 220.621 76.6995 220.646 76.7805C220.672 76.8615 220.665 76.9495 220.626 77.0251C220.601 77.0728 220.564 77.1136 220.52 77.1437C220.475 77.1738 220.424 77.1923 220.37 77.1975C219.302 77.2941 218.236 77.4041 217.166 77.479C216.096 77.5569 215.028 77.651 213.955 77.7037C215.006 77.4802 216.062 77.2985 217.117 77.1003C218.171 76.8993 219.23 76.7332 220.286 76.5538L220.189 77.1685C217.566 76.0243 214.967 74.8279 212.379 73.6085C209.795 72.3817 207.222 71.1319 204.674 69.8293L204.888 69.8588C203.628 70.044 202.365 70.2108 201.102 70.3727C199.835 70.5146 198.572 70.6861 197.301 70.8006H197.3L197.291 70.8001Z" fill="#001D62"/>
<path d="M191.867 80.588L191.857 80.5882L185.608 81.5897C183.526 81.9292 181.436 82.213 179.35 82.5269C177.263 82.8272 175.179 83.1548 173.089 83.4328L166.82 84.2842C166.753 84.2925 166.685 84.2855 166.622 84.2637C164.102 83.3964 161.573 82.5589 159.065 81.6576L151.529 78.9924C151.479 78.9748 151.432 78.9474 151.392 78.9117C151.351 78.876 151.319 78.8328 151.295 78.7844C151.272 78.7361 151.258 78.6836 151.255 78.63C151.252 78.5764 151.259 78.5227 151.277 78.4719C151.301 78.403 151.344 78.3419 151.4 78.2946C151.455 78.2474 151.523 78.2158 151.595 78.2031C154.969 77.6271 158.358 77.137 161.741 76.6075C165.124 76.081 168.515 75.6049 171.909 75.145C168.555 75.8388 165.198 76.5164 161.832 77.1436C158.466 77.7678 155.107 78.4315 151.732 79.0091L151.798 78.2199L159.362 80.8023C161.888 81.65 164.392 82.5618 166.906 83.4436L166.708 83.4231L172.986 82.64C175.078 82.3731 177.176 82.1561 179.27 81.9116C181.367 81.6808 183.46 81.4196 185.559 81.2145C187.658 81.0007 189.755 80.7728 191.857 80.5876H191.857L191.867 80.588Z" fill="#001D62"/>
<path d="M167.518 67.2851C165.262 67.9405 162.993 68.5383 160.73 69.1607C160.163 69.3108 159.601 69.4808 159.029 69.6087L157.309 69.9684L153.873 70.7113L152.155 71.0828C151.531 71.2522 150.879 71.2913 150.239 71.1977C149.561 71.0937 148.93 70.7868 148.429 70.3174C148.176 70.0619 147.981 69.7543 147.858 69.4159C147.735 69.0776 147.688 68.7166 147.718 68.358C147.861 67.0692 148.449 65.8704 149.38 64.9681C149.826 64.5239 150.331 64.1432 150.881 63.8367C151.152 63.6861 151.43 63.5509 151.716 63.4317C151.978 63.3202 152.236 63.201 152.49 63.074C154.548 62.1209 156.281 60.5847 157.474 58.656C158.035 57.6889 158.406 56.624 158.569 55.5181C158.715 54.4319 158.717 53.2255 158.776 52.0626L159.349 38.0139L159.359 38.1321C159.303 37.9772 159.224 37.8314 159.125 37.6994C159.01 37.5422 158.88 37.3974 158.735 37.2671C158.418 37.0065 158.077 36.7765 157.717 36.5801C156.946 36.1737 156.122 35.8792 155.268 35.7054C154.387 35.5344 153.495 35.4265 152.599 35.3826C151.696 35.3323 150.789 35.3379 149.877 35.3531C150.778 35.2296 151.683 35.0934 152.599 35.0523C153.52 34.9999 154.444 35.0138 155.363 35.0938C156.31 35.1849 157.238 35.4115 158.12 35.7668C158.581 35.9606 159.003 36.2352 159.367 36.5775C159.784 36.9403 160.095 37.4086 160.268 37.9332C160.277 37.9621 160.281 37.9922 160.28 38.0225L160.279 38.0517L159.705 52.1012C159.644 53.2774 159.652 54.4215 159.488 55.6594C159.308 56.8795 158.898 58.0542 158.28 59.1214C156.995 61.2093 155.126 62.8737 152.903 63.9079C152.633 64.0426 152.359 64.169 152.082 64.2871C151.827 64.3932 151.578 64.5138 151.336 64.6482C150.861 64.9128 150.424 65.2415 150.039 65.625C149.271 66.368 148.78 67.3513 148.647 68.4118C148.623 68.6385 148.65 68.8678 148.725 69.0829C148.8 69.2981 148.923 69.4938 149.083 69.6558C149.448 69.9887 149.903 70.2059 150.391 70.2799C150.915 70.3545 151.449 70.3183 151.958 70.1734L153.676 69.8018L157.112 69.0589L158.827 68.6759C159.401 68.5562 159.984 68.4786 160.562 68.3808C162.88 68.0128 165.193 67.6202 167.518 67.2851Z" fill="#001D62"/>
<path d="M153.287 25.3124C154.284 26.4443 155.206 27.6438 156.428 28.8058L143.362 44.9905C143.137 29.5855 132.425 28.8058 132.425 28.8058L150.034 22.104C150.645 22.59 151.229 23.1105 151.781 23.6631C152.305 24.1954 152.793 24.7501 153.287 25.3124Z" fill="#001D62"/>
<path d="M162.013 28.8059H156.428C156.35 27.9754 156.124 27.1656 155.761 26.4145C155.413 25.6606 154.961 24.9591 154.419 24.3303C153.87 23.6875 153.216 23.1426 152.485 22.7187C151.744 22.2834 150.893 22.0701 150.034 22.1041L152.523 17.4111L162.013 28.8059Z" fill="#001D62"/>
<path d="M143.364 44.9923C141.696 44.478 140.139 43.653 138.777 42.5609C137.383 41.4828 136.168 40.1917 135.176 38.735C134.918 38.3766 134.685 38.0011 134.479 37.6111C134.271 37.2217 134.03 36.8501 133.853 36.4464C133.483 35.647 133.18 34.8183 132.947 33.9689C132.464 32.2923 132.286 30.5425 132.422 28.803C132.865 30.4282 133.409 32.0242 134.051 33.5816C134.681 35.0976 135.473 36.5414 136.412 37.8878C137.333 39.252 138.383 40.5243 139.548 41.6869C140.738 42.8799 142.014 43.9846 143.364 44.9923Z" fill="#001D62"/>
<path d="M138.786 39.8005C144.175 39.8005 144.183 31.4268 138.786 31.4268C133.398 31.4268 133.389 39.8005 138.786 39.8005Z" fill="#001D62"/>
<path d="M99.6816 73.9721L113.457 71.5859C118.15 70.7872 122.901 69.9675 127.642 69.354L127.657 69.352C127.727 69.3427 127.798 69.356 127.86 69.3897L133.372 72.3612C135.204 73.3618 137.055 74.3261 138.904 75.2935C140.746 76.2741 142.618 77.1982 144.477 78.1452C146.335 79.0947 148.217 79.9991 150.086 80.9283C150.133 80.9518 150.172 80.9896 150.196 81.0363C150.221 81.083 150.23 81.1363 150.223 81.1887C150.216 81.241 150.192 81.2897 150.156 81.3279C150.119 81.3661 150.072 81.3918 150.02 81.4014L150.01 81.4033C145.308 82.2536 140.602 83.0832 135.889 83.8636C131.177 84.6577 126.467 85.4547 121.744 86.1769L121.739 86.1777C121.636 86.1936 121.53 86.1754 121.438 86.1259C117.716 84.1282 114.029 82.0413 110.381 79.9937C106.758 77.9279 103.193 75.9074 99.6816 73.9721ZM99.7735 73.9879C103.575 75.9584 107.323 77.8439 111.013 79.684C114.678 81.5423 118.304 83.3612 121.895 85.2693L121.59 85.2183C126.301 84.4258 131.025 83.708 135.748 82.9873C140.469 82.253 145.198 81.5679 149.93 80.9036L149.854 81.3783C148.011 80.4003 146.18 79.3975 144.326 78.4396C142.473 77.4795 140.632 76.4963 138.762 75.5695C136.899 74.6299 135.037 73.687 133.157 72.7801L127.532 70.0299L127.75 70.0656C123.167 70.8755 118.597 71.479 113.966 72.1039L106.946 73.0214L99.7735 73.9879Z" fill="#001D62"/>
<path d="M116.14 76.9114C117.151 76.6864 118.173 76.5129 119.201 76.3916C120.176 76.5468 121.154 76.6705 122.131 76.8114L127.993 77.633L133.854 78.4548L136.785 78.8655C137.723 79.2824 138.662 79.6912 139.587 80.1977C138.558 80.4303 137.543 80.5652 136.527 80.7083L133.596 80.2976L127.734 79.476L121.873 78.6543C120.895 78.5216 119.92 78.3713 118.941 78.2527C117.985 77.8533 117.05 77.4056 116.14 76.9114Z" fill="#001D62"/>
<path d="M39.9861 79.1748L53.7619 76.7886C58.4541 75.9899 63.2058 75.1701 67.946 74.5566L67.9612 74.5546C68.0314 74.5454 68.1027 74.5586 68.1649 74.5923L73.6765 77.5638C75.5087 78.5644 77.3594 79.5287 79.2082 80.4962C81.0507 81.4768 82.922 82.4008 84.7815 83.3478C86.6399 84.2973 88.5213 85.2017 90.3901 86.1309C90.4374 86.1544 90.4762 86.1922 90.5008 86.2389C90.5255 86.2857 90.5348 86.339 90.5275 86.3913C90.5202 86.4436 90.4966 86.4923 90.4601 86.5305C90.4236 86.5687 90.376 86.5944 90.324 86.604L90.3145 86.6059C85.6122 87.4562 80.9066 88.2858 76.1932 89.0662C71.4819 89.8603 66.771 90.6574 62.0482 91.3795L62.0436 91.3803C61.9403 91.3962 61.8345 91.3781 61.7424 91.3285C58.0203 89.3309 54.3338 87.2439 50.6853 85.1963C47.0626 83.1305 43.4973 81.11 39.9861 79.1748ZM40.0779 79.1905C43.8798 81.1611 47.6274 83.0465 51.3178 84.8866C54.9822 86.745 58.6089 88.5638 62.1999 90.4719L61.8943 90.4209C66.6059 89.6284 71.3294 88.9106 76.0524 88.1899C80.7734 87.4556 85.5022 86.7706 90.2343 86.1062L90.1588 86.581C88.3152 85.6029 86.4843 84.6002 84.6303 83.6422C82.7774 82.6821 80.9365 81.6989 79.0666 80.7721C77.2032 79.8325 75.3416 78.8896 73.4612 77.9828L67.836 75.2325L68.0545 75.2682C63.4719 76.0781 58.901 76.6817 54.2705 77.3065L47.2506 78.224L40.0779 79.1905Z" fill="#001D62"/>
<path d="M74.0596 77.9834C75.7485 77.6382 77.4404 77.3127 79.1353 77.0069C80.8317 76.7117 82.5237 76.3874 84.2239 76.1164C87.6231 75.5668 91.0167 74.9804 94.4316 74.5345L94.4495 74.5323C94.5235 74.5225 94.5986 74.5366 94.664 74.5724L100.158 77.5791C101.988 78.5827 103.839 79.5461 105.693 80.5057C107.555 81.4469 109.418 82.3882 111.3 83.2921L116.932 86.0286C117.001 86.0624 117.058 86.1173 117.095 86.1854C117.131 86.2535 117.145 86.3314 117.134 86.4079C117.124 86.4843 117.089 86.5555 117.036 86.6112C116.982 86.6669 116.913 86.7042 116.837 86.7179L116.822 86.7204L109.76 87.9426C107.405 88.346 105.05 88.7444 102.691 89.1182C100.33 89.4855 97.9703 89.8541 95.6042 90.1857C93.2387 90.5215 90.8763 90.8759 88.5057 91.1791L88.4894 91.1812C88.4328 91.1885 88.3754 91.1772 88.3257 91.1491C86.3122 90.0097 84.309 88.8507 82.3163 87.6723C82.306 87.6662 82.2985 87.6563 82.2953 87.6448C82.292 87.6333 82.2934 87.6209 82.299 87.6104C82.3046 87.5998 82.3141 87.5918 82.3255 87.588C82.3369 87.5843 82.3492 87.585 82.3601 87.5901C84.4505 88.5852 86.5287 89.6035 88.5948 90.6449L88.4151 90.615C90.7615 90.1614 93.1164 89.759 95.468 89.338C97.8193 88.9129 100.176 88.5249 102.533 88.1352C104.891 87.7523 107.253 87.3942 109.615 87.0407L116.705 85.9926L116.595 86.6844L111.09 83.699C109.26 82.6955 107.41 81.7294 105.56 80.7632C103.701 79.8155 101.84 78.8715 99.958 77.968L94.3148 75.2523L94.5469 75.2902C91.1545 75.8836 87.7404 76.336 84.3321 76.8254C82.6285 77.0739 80.9168 77.269 79.2094 77.4934C77.5009 77.7088 75.789 77.9028 74.0737 78.0754C74.0618 78.0766 74.0499 78.0732 74.0405 78.0658C74.031 78.0585 74.0248 78.0479 74.023 78.0361C74.0212 78.0243 74.024 78.0122 74.0308 78.0024C74.0376 77.9926 74.0479 77.9858 74.0596 77.9833L74.0596 77.9834Z" fill="#001D62"/>
<path d="M189.045 32.9661C188.656 34.0682 188.213 35.1476 187.771 36.2271L186.009 39.1957L182.628 44.9081H181.324L181.526 44.5706L185.042 38.6259L186.804 35.6499C187.538 34.7503 188.266 33.8433 189.045 32.9661Z" fill="#001D62"/>
<path d="M180.814 36.6993L180.394 40.3727L179.877 44.908H178.745L179.277 40.2451L179.69 36.5719C179.997 35.3651 180.297 34.158 180.672 32.9661C180.762 34.2181 180.792 35.455 180.814 36.6993Z" fill="#001D62"/>
<path d="M176.174 44.9081H176.886L176.489 42.127L176.166 39.893L175.672 36.3847C175.334 35.2452 175.004 34.0983 174.607 32.9663C174.555 33.9483 174.54 34.9229 174.547 35.8974V36.5496L174.69 37.5167L175.057 40.0504L175.754 44.9081H176.174Z" fill="#001D62"/>
<path d="M173.798 44.908H172.666L171.961 40.0503L171.459 36.5494C171.451 35.3575 171.451 34.1655 171.519 32.9661C171.916 34.0982 172.246 35.245 172.583 36.3845L173.078 39.893L173.558 43.2364L173.798 44.908Z" fill="#001D62"/>
<path d="M174.69 36.8569V37.5165L174.682 40.3051V44.9081H173.558V36.8569C173.723 35.7099 173.887 34.5629 174.12 33.4084C174.285 34.2406 174.427 35.0727 174.547 35.8973C174.6 36.2196 174.645 36.5346 174.69 36.8569Z" fill="#001D62"/>
<path d="M178.153 37.4341L177.763 40.86L177.306 44.9082H176.174L176.489 42.127L176.646 40.7326L177.029 37.3067C177.321 36.1822 177.613 35.0577 177.973 33.9482C178.078 35.1103 178.115 36.2723 178.153 37.4341Z" fill="#001D62"/>
<path d="M170.327 49.4958V53.544C170.522 53.5215 170.716 53.5065 170.911 53.484L172.598 49.6983C171.841 49.6457 171.084 49.5859 170.327 49.4958ZM172.808 49.7658L171.001 53.4765C172.088 53.364 173.183 53.2891 174.27 53.2441L172.808 49.7658ZM173.048 49.7283L174.592 53.0567L175.822 49.8409C174.899 49.8258 173.97 49.7808 173.048 49.7283L173.048 49.7283ZM176.211 50.1632L174.945 53.2216C175.746 53.1916 176.541 53.1766 177.343 53.1692L176.211 50.1632ZM177.808 49.8707C177.418 49.8632 177.021 49.8557 176.631 49.8557L177.778 52.6819L178.753 49.8557C178.438 49.8632 178.123 49.8632 177.808 49.8707L177.808 49.8707ZM179.255 50.5829L178.273 53.1693C178.903 53.1766 179.532 53.1843 180.162 53.2066C179.847 52.3295 179.547 51.46 179.255 50.5828V50.5829ZM179.78 49.8409C180.102 50.733 180.409 51.625 180.709 52.517C181.114 51.5949 181.511 50.6804 181.924 49.7659C181.211 49.8031 180.499 49.8258 179.78 49.8408L179.78 49.8409ZM182.343 50.1857C181.969 51.2051 181.579 52.2173 181.189 53.2367C182.051 53.2666 182.913 53.3192 183.768 53.3941C183.273 52.3295 182.808 51.2651 182.343 50.1856L182.343 50.1857ZM170.327 44.9082V49.496C172.811 49.2252 175.309 49.1 177.808 49.1211C178.265 49.1211 178.723 49.1286 179.18 49.1361C179.246 49.1174 179.316 49.1174 179.382 49.1361C180.342 49.1511 181.294 49.1887 182.246 49.241C182.27 49.2326 182.295 49.2276 182.321 49.2262C182.36 49.2264 182.398 49.234 182.434 49.2487C183.386 49.3085 184.338 49.3836 185.29 49.4959V44.9082L170.327 44.9082ZM172.073 48.2592C171.782 48.2495 171.505 48.1268 171.302 47.917C171.099 47.7072 170.985 47.4266 170.985 47.1347C170.985 46.8427 171.099 46.5622 171.302 46.3524C171.505 46.1426 171.782 46.0199 172.073 46.0102C172.365 46.0204 172.641 46.1434 172.843 46.3531C173.046 46.5629 173.159 46.8431 173.159 47.1346C173.159 47.4262 173.046 47.7064 172.843 47.9161C172.641 48.1259 172.365 48.2488 172.073 48.259L172.073 48.2592ZM176.121 48.2592C175.83 48.2495 175.553 48.1268 175.35 47.917C175.147 47.7072 175.033 47.4266 175.033 47.1347C175.033 46.8427 175.147 46.5622 175.35 46.3524C175.553 46.1426 175.83 46.0199 176.121 46.0102C176.413 46.0204 176.689 46.1434 176.891 46.3531C177.094 46.5629 177.207 46.8431 177.207 47.1346C177.207 47.4262 177.094 47.7064 176.891 47.9161C176.689 48.1259 176.413 48.2488 176.121 48.259L176.121 48.2592ZM180.035 48.1243C179.743 48.1146 179.466 47.9919 179.263 47.7821C179.06 47.5723 178.947 47.2918 178.947 46.9998C178.947 46.7079 179.06 46.4273 179.263 46.2175C179.466 46.0077 179.743 45.885 180.035 45.8753C180.326 45.8856 180.602 46.0085 180.805 46.2182C181.007 46.428 181.12 46.7082 181.12 46.9998C181.12 47.2913 181.007 47.5715 180.805 47.7813C180.602 47.991 180.326 48.1139 180.035 48.1241L180.035 48.1243ZM183.88 48.2592C183.588 48.2495 183.312 48.1268 183.109 47.917C182.906 47.7072 182.792 47.4266 182.792 47.1347C182.792 46.8427 182.906 46.5622 183.109 46.3524C183.312 46.1426 183.588 46.0199 183.88 46.0102C184.172 46.0204 184.448 46.1434 184.65 46.3531C184.853 46.5629 184.966 46.8431 184.966 47.1346C184.966 47.4262 184.853 47.7064 184.65 47.9161C184.448 48.1259 184.172 48.2488 183.88 48.259L183.88 48.2592ZM182.673 49.721C183.093 50.9428 183.498 52.1648 183.873 53.4018C184.345 53.4467 184.817 53.4842 185.29 53.5443V49.4961C184.42 49.5934 183.55 49.6682 182.673 49.7208L182.673 49.721ZM172.808 49.766L171.001 53.4767C172.088 53.3642 173.183 53.2893 174.27 53.2443L172.808 49.766ZM173.048 49.7285L174.592 53.0569L175.822 49.8411C174.899 49.8258 173.97 49.7808 173.048 49.7283L173.048 49.7285ZM176.211 50.1634L174.945 53.2218C175.747 53.1918 176.541 53.1767 177.343 53.1694L176.211 50.1634ZM177.808 49.8709C177.418 49.8634 177.021 49.8559 176.631 49.8559L177.778 52.6821L178.753 49.8559C178.438 49.8632 178.123 49.8632 177.808 49.8707L177.808 49.8709ZM179.255 50.583L178.273 53.1695C178.903 53.1768 179.532 53.1845 180.162 53.2068C179.847 52.3295 179.547 51.46 179.255 50.5828L179.255 50.583ZM179.78 49.8411C180.102 50.7332 180.41 51.6252 180.709 52.5172C181.114 51.5951 181.512 50.6806 181.924 49.7661C181.211 49.8031 180.499 49.8258 179.78 49.8408L179.78 49.8411ZM182.344 50.1859C181.969 51.2053 181.579 52.2175 181.189 53.2368C182.051 53.2668 182.913 53.3194 183.768 53.3943C183.273 52.3295 182.808 51.2651 182.343 50.1856L182.344 50.1859ZM172.808 49.7661L171.001 53.4768C172.088 53.3643 173.183 53.2894 174.27 53.2444L172.808 49.7661ZM173.048 49.7286L174.592 53.057L175.822 49.8411C174.899 49.8258 173.97 49.7808 173.048 49.7283L173.048 49.7286ZM176.211 50.1635L174.945 53.2219C175.747 53.1919 176.541 53.1769 177.343 53.1695L176.211 50.1635ZM177.808 49.871C177.418 49.8635 177.021 49.856 176.631 49.856L177.778 52.6821L178.753 49.856C178.438 49.8632 178.123 49.8632 177.808 49.8707L177.808 49.871ZM179.255 50.5832L178.273 53.1696C178.903 53.1769 179.532 53.1846 180.162 53.2069C179.847 52.3295 179.547 51.46 179.255 50.5828L179.255 50.5832ZM179.78 49.8412C180.102 50.7333 180.41 51.6253 180.709 52.5173C181.114 51.5952 181.512 50.6807 181.924 49.7662C181.211 49.8031 180.499 49.8258 179.78 49.8408L179.78 49.8412ZM182.344 50.186C181.969 51.2054 181.579 52.2176 181.189 53.2369C182.051 53.2669 182.913 53.3195 183.768 53.3944C183.273 52.3295 182.808 51.2651 182.343 50.1856L182.344 50.186ZM170.327 57.9297V58.8593C170.327 60.8435 171.115 62.7464 172.518 64.1495C173.921 65.5525 175.824 66.3407 177.808 66.3407C179.792 66.3407 181.695 65.5525 183.098 64.1495C184.501 62.7464 185.29 60.8435 185.29 58.8593V57.9297C180.315 58.4295 175.302 58.4295 170.327 57.9297ZM180.867 53.8592C180.819 53.8914 180.764 53.9116 180.706 53.9181C180.649 53.9246 180.591 53.9173 180.537 53.8967C180.521 53.8876 180.506 53.8776 180.492 53.8667C179.6 53.8967 178.7 53.9117 177.808 53.9192C175.309 53.9329 172.812 53.8077 170.327 53.5444V57.9297C175.302 57.4299 180.314 57.4299 185.29 57.9297V53.544C183.813 53.7164 182.343 53.8063 180.867 53.8588L180.867 53.8592ZM172.411 56.8953C172.119 56.8856 171.842 56.7629 171.639 56.5531C171.436 56.3433 171.323 56.0628 171.323 55.7708C171.323 55.4789 171.436 55.1983 171.639 54.9885C171.842 54.7787 172.119 54.656 172.411 54.6463C172.702 54.6572 172.977 54.7805 173.179 54.9901C173.381 55.1998 173.494 55.4796 173.494 55.7707C173.494 56.0618 173.381 56.3416 173.179 56.5512C172.977 56.7608 172.702 56.884 172.411 56.8949L172.411 56.8953ZM175.852 56.8277C175.56 56.8181 175.283 56.6954 175.08 56.4856C174.877 56.2757 174.764 55.9952 174.764 55.7033C174.764 55.4113 174.877 55.1308 175.08 54.921C175.283 54.7111 175.56 54.5884 175.852 54.5788C176.143 54.5897 176.418 54.7129 176.62 54.9226C176.822 55.1323 176.935 55.4121 176.935 55.7032C176.935 55.9943 176.822 56.274 176.62 56.4837C176.418 56.6933 176.142 56.8165 175.852 56.8274L175.852 56.8277ZM179.63 56.8277C179.338 56.8181 179.061 56.6954 178.858 56.4856C178.655 56.2757 178.542 55.9952 178.542 55.7033C178.542 55.4113 178.655 55.1308 178.858 54.921C179.061 54.7111 179.338 54.5884 179.63 54.5788C179.921 54.5897 180.196 54.7129 180.398 54.9226C180.6 55.1323 180.713 55.412 180.713 55.7031C180.713 55.9942 180.6 56.274 180.398 56.4837C180.196 56.6933 179.921 56.8165 179.63 56.8274L179.63 56.8277ZM183.408 56.6928C183.116 56.6832 182.84 56.5605 182.637 56.3507C182.434 56.1408 182.32 55.8603 182.32 55.5684C182.32 55.2764 182.434 54.9959 182.637 54.7861C182.84 54.5763 183.116 54.4536 183.408 54.4439C183.699 54.4548 183.974 54.578 184.176 54.7877C184.378 54.9974 184.491 55.2771 184.491 55.5682C184.491 55.8594 184.378 56.1391 184.176 56.3488C183.974 56.5584 183.699 56.6816 183.408 56.6925L183.408 56.6928ZM183.768 53.3943C183.273 52.3299 182.808 51.2654 182.344 50.186C181.969 51.2054 181.579 52.2175 181.189 53.2369C182.051 53.2666 182.913 53.3191 183.768 53.394L183.768 53.3943ZM181.924 49.7661C181.212 49.8035 180.499 49.8262 179.78 49.8412C180.102 50.7332 180.41 51.6252 180.709 52.5173C181.114 51.5949 181.511 50.6803 181.924 49.7658L181.924 49.7661ZM180.162 53.2069C179.847 52.3299 179.547 51.4603 179.255 50.5831L178.273 53.1696C178.903 53.1765 179.532 53.1842 180.162 53.2065L180.162 53.2069ZM178.753 49.856C178.438 49.8635 178.123 49.8635 177.808 49.871C177.418 49.8635 177.021 49.856 176.631 49.856L177.778 52.6821L178.753 49.856ZM177.343 53.1695L176.211 50.1635L174.945 53.2219C175.747 53.1915 176.541 53.1765 177.343 53.1692L177.343 53.1695ZM175.822 49.8411C174.9 49.8261 173.97 49.7811 173.048 49.7286L174.592 53.0569L175.822 49.8411ZM172.808 49.7661L171.001 53.4768C172.088 53.3643 173.183 53.2894 174.27 53.2444L172.808 49.7661ZM182.344 50.1859C181.969 51.2053 181.579 52.2175 181.189 53.2368C182.051 53.2668 182.913 53.3194 183.768 53.3943C183.273 52.3295 182.808 51.2651 182.343 50.1856L182.344 50.1859ZM179.78 49.8411C180.102 50.7332 180.41 51.6252 180.709 52.5172C181.114 51.5951 181.512 50.6806 181.924 49.7661C181.211 49.8031 180.499 49.8258 179.78 49.8408L179.78 49.8411ZM179.255 50.583L178.273 53.1695C178.903 53.1768 179.532 53.1845 180.162 53.2068C179.847 52.3295 179.547 51.46 179.255 50.5828L179.255 50.583ZM177.808 49.8709C177.418 49.8634 177.021 49.8559 176.631 49.8559L177.778 52.6821L178.753 49.8559C178.438 49.8632 178.123 49.8632 177.808 49.8707L177.808 49.8709ZM176.211 50.1634L174.945 53.2218C175.747 53.1918 176.541 53.1767 177.343 53.1694L176.211 50.1634ZM173.048 49.7285L174.592 53.0569L175.822 49.8411C174.899 49.8258 173.97 49.7808 173.048 49.7283L173.048 49.7285ZM172.808 49.766L171.001 53.4767C172.088 53.3642 173.183 53.2893 174.27 53.2443L172.808 49.766ZM182.344 50.1858C181.969 51.2052 181.579 52.2174 181.189 53.2367C182.051 53.2667 182.913 53.3193 183.768 53.3942C183.273 52.3295 182.808 51.2651 182.343 50.1856L182.344 50.1858ZM179.78 49.841C180.102 50.7331 180.41 51.6251 180.709 52.5171C181.114 51.595 181.512 50.6805 181.924 49.766C181.211 49.8031 180.499 49.8258 179.78 49.8408L179.78 49.841ZM179.255 50.583L178.273 53.1694C178.903 53.1767 179.532 53.1844 180.162 53.2067C179.847 52.3295 179.547 51.46 179.255 50.5828L179.255 50.583ZM177.808 49.8708C177.418 49.8633 177.021 49.8558 176.631 49.8558L177.778 52.682L178.753 49.8558C178.438 49.8632 178.123 49.8632 177.808 49.8707L177.808 49.8708ZM176.211 50.1633L174.945 53.2217C175.747 53.1917 176.541 53.1767 177.343 53.1693L176.211 50.1633ZM173.048 49.7284L174.592 53.0568L175.822 49.841C174.899 49.8258 173.97 49.7808 173.048 49.7283L173.048 49.7284ZM172.808 49.7659L171.001 53.4766C172.088 53.3641 173.183 53.2892 174.27 53.2442L172.808 49.7659Z" fill="#001D62"/>
<path d="M48.5535 172.751C48.6926 174.602 48.7638 176.453 48.8618 178.304C48.9639 180.155 49.01 182.006 49.0768 183.857C49.1189 185.708 49.1872 187.56 49.2075 189.411C49.2313 191.262 49.2787 193.113 49.279 194.964L48.7454 194.265L53.9619 195.672L53.5891 195.667L58.7874 194.434L58.2391 195.132C58.2843 191.696 58.347 188.26 58.4558 184.825C58.5213 183.107 58.5696 181.389 58.667 179.671C58.7566 177.954 58.8273 176.236 58.9567 174.518C59.0861 176.236 59.1567 177.954 59.2464 179.671C59.3438 181.389 59.3921 183.107 59.4576 184.825C59.5663 188.26 59.6291 191.696 59.6743 195.132C59.6764 195.291 59.6247 195.446 59.5276 195.572C59.4304 195.698 59.2936 195.788 59.1392 195.826L59.1258 195.829L53.9409 197.116C53.8181 197.146 53.6897 197.144 53.5679 197.111L48.3621 195.664C48.2091 195.621 48.0742 195.53 47.9779 195.404C47.8815 195.277 47.829 195.123 47.8282 194.964C47.8286 193.113 47.876 191.262 47.8998 189.411C47.9201 187.56 47.9884 185.709 48.0305 183.857C48.0973 182.006 48.1434 180.155 48.2455 178.304C48.3434 176.453 48.4146 174.602 48.5535 172.751Z" fill="#001D62"/>
<path d="M53.7551 174.432C54.1226 178.091 54.2083 181.751 54.2249 185.411C54.2136 189.071 54.1314 192.731 53.765 196.391C53.3953 192.732 53.3098 189.072 53.2952 185.412C53.3086 181.752 53.3909 178.092 53.7551 174.432Z" fill="#001D62"/>
<path d="M0.918588 148.028C1.06556 149.879 1.13711 151.73 1.24198 153.581C1.3366 155.432 1.40139 157.283 1.45776 159.135C1.56519 162.837 1.63877 166.539 1.6503 170.241L1.11186 169.536C2.852 170.001 4.5925 170.464 6.32477 170.957L5.95599 170.952C7.68972 170.544 9.41925 170.121 11.159 169.739L10.6323 170.409C10.6621 168.923 10.6704 167.438 10.7181 165.953C10.7641 164.468 10.789 162.983 10.8538 161.498C10.9059 160.012 10.9678 158.527 11.0549 157.042C11.1344 155.557 11.2042 154.072 11.3218 152.586C11.4391 154.072 11.509 155.557 11.5886 157.042C11.6756 158.527 11.7374 160.012 11.7896 161.498C11.8544 162.983 11.8793 164.468 11.9252 165.953C11.973 167.438 11.9812 168.923 12.0112 170.409C12.0142 170.559 11.9668 170.706 11.8764 170.826C11.786 170.946 11.658 171.033 11.5127 171.071L11.4842 171.079C9.76288 171.536 8.03152 171.953 6.30401 172.385C6.18798 172.415 6.06644 172.414 5.95059 172.384L5.93504 172.38C4.19325 171.922 2.4597 171.434 0.725424 170.947L0.719007 170.945C0.565611 170.902 0.430567 170.81 0.334496 170.683C0.238425 170.556 0.186616 170.401 0.186983 170.241C0.198513 166.539 0.272076 162.837 0.379507 159.135C0.43588 157.283 0.50067 155.432 0.595298 153.581C0.700068 151.73 0.771628 149.879 0.918588 148.028Z" fill="#001D62"/>
<path d="M6.12011 149.709C6.48762 153.369 6.57326 157.028 6.58992 160.688C6.57839 164.348 6.49622 168.008 6.12981 171.669C5.76012 168.009 5.67483 164.349 5.66 160.689C5.67337 157.029 5.75591 153.369 6.12011 149.709Z" fill="#001D62"/>
<path d="M124.849 164.823C124.974 166.469 125.045 168.114 125.131 169.76C125.225 171.406 125.278 173.051 125.339 174.697C125.449 177.988 125.514 181.279 125.557 184.571L125.167 183.938L129.871 186.262L129.342 186.209C131.179 185.687 133.03 185.212 134.873 184.711L134.338 185.411C134.339 183.595 134.384 181.779 134.409 179.963C134.429 178.147 134.497 176.331 134.539 174.515C134.605 172.699 134.653 170.883 134.755 169.067C134.853 167.251 134.925 165.435 135.065 163.619C135.205 165.435 135.276 167.251 135.375 169.067C135.476 170.883 135.524 172.699 135.59 174.515C135.633 176.331 135.7 178.147 135.72 179.963C135.746 181.779 135.79 183.595 135.791 185.411C135.79 185.57 135.738 185.725 135.641 185.851C135.545 185.978 135.41 186.069 135.256 186.112C133.415 186.62 131.581 187.155 129.734 187.641L129.723 187.644C129.549 187.69 129.365 187.67 129.205 187.589L124.531 185.204L124.518 185.198C124.403 185.139 124.307 185.049 124.24 184.938C124.173 184.828 124.139 184.7 124.14 184.571C124.184 181.279 124.249 177.988 124.359 174.697C124.42 173.051 124.473 171.406 124.567 169.76C124.653 168.114 124.723 166.469 124.849 164.823Z" fill="#001D62"/>
<path d="M129.957 164.217C130.253 168.008 130.267 171.795 130.212 175.58C130.13 179.364 129.976 183.147 129.538 186.925C129.24 183.134 129.226 179.348 129.283 175.563C129.367 171.778 129.521 167.995 129.957 164.217Z" fill="#001D62"/>
<path d="M185.298 126.477C184.555 126.434 183.826 126.261 183.142 125.965C181.099 125.138 179.273 123.852 177.806 122.206C178.488 122.467 179.15 122.776 179.788 123.131C180.427 123.464 181.039 123.833 181.655 124.192C182.26 124.569 182.871 124.931 183.469 125.32C184.075 125.698 184.664 126.096 185.298 126.477Z" fill="#001D62"/>
<path d="M32.0473 38.4386C32.654 39.4345 33.379 40.3532 34.2064 41.1749C33.3682 41.2038 32.536 41.0234 31.785 40.65C31.2426 40.3705 30.7846 39.9513 30.4582 39.4357C30.14 38.9128 29.9642 38.3158 29.9485 37.704C29.9331 36.8667 30.129 36.0391 30.518 35.2976C30.8963 36.4037 31.41 37.4587 32.0473 38.4386Z" fill="#001D62"/>
<path d="M34.7835 38.7685C34.7985 39.6066 34.5998 40.4347 34.2063 41.1749C33.8281 40.0688 33.3144 39.0138 32.677 38.0339C32.0685 37.0393 31.3437 36.1208 30.518 35.2976C31.3547 35.2677 32.1854 35.4509 32.932 35.8298C33.4745 36.1087 33.9345 36.5249 34.2662 37.0368C34.5912 37.557 34.7699 38.1553 34.7835 38.7685Z" fill="#001D62"/>
<path d="M30.0458 45.5902C30.6527 46.5879 31.3804 47.507 32.2124 48.3265C31.374 48.3564 30.5416 48.1759 29.7908 47.8016C29.2464 47.5221 28.7859 47.1031 28.4565 46.5873C28.1383 46.0644 27.9626 45.4674 27.9468 44.8556C27.9315 44.0183 28.1274 43.1907 28.5165 42.4492C28.8979 43.554 29.4114 44.6086 30.0458 45.5902Z" fill="#001D62"/>
<path d="M32.7819 45.9201C32.7965 46.7573 32.6006 47.5848 32.2123 48.3266C31.8276 47.2232 31.3143 46.1689 30.6831 45.1855C30.0718 44.1909 29.3445 43.2724 28.5165 42.4494C29.3533 42.4186 30.1841 42.6018 30.9303 42.9816C31.4782 43.2553 31.9404 43.674 32.2669 44.1921C32.5934 44.7102 32.7715 45.3079 32.782 45.9202L32.7819 45.9201Z" fill="#001D62"/>
<path d="M27.7894 53.4615C28.3982 54.4579 29.1256 55.3767 29.9557 56.1979C29.1165 56.2294 28.283 56.0462 27.5344 55.6655C26.9888 55.3911 26.5277 54.974 26.2002 54.4586C25.8819 53.9358 25.7061 53.3388 25.6903 52.7269C25.6742 51.8896 25.8702 51.0618 26.26 50.3206C26.6415 51.4253 27.155 52.48 27.7894 53.4615Z" fill="#001D62"/>
<path d="M30.5257 53.7837C30.541 54.6234 30.345 55.4536 29.9557 56.1977C29.5719 55.0927 29.0559 54.038 28.4191 53.0566C27.8105 52.0621 27.0857 51.1436 26.26 50.3205C27.0968 50.2897 27.9277 50.4729 28.6739 50.8527C29.2165 51.1315 29.6766 51.5477 30.0083 52.0597C30.3322 52.5776 30.5109 53.1731 30.5257 53.7837Z" fill="#001D62"/>
<path d="M26.6873 61.8425C27.2965 62.8409 28.0239 63.7622 28.8537 64.5863C28.0145 64.6179 27.181 64.4347 26.4324 64.0541C25.8884 63.7762 25.4298 63.3564 25.1051 62.839C24.7804 62.3216 24.6018 61.726 24.5883 61.1153C24.5759 60.2784 24.7717 59.4515 25.158 58.709C25.5426 59.8101 26.0559 60.8619 26.6873 61.8425Z" fill="#001D62"/>
<path d="M29.4235 62.1722C29.4428 63.0123 29.2467 63.8433 28.8538 64.5862C28.0626 62.3823 26.8016 60.3769 25.1581 58.7089C25.9949 58.6781 26.8257 58.8613 27.572 59.2411C28.1176 59.5156 28.5787 59.9327 28.9063 60.4482C29.2346 60.9641 29.4136 61.5608 29.4235 62.1722Z" fill="#001D62"/>
<path d="M26.3584 66.965C27.1954 66.9367 28.026 67.1194 28.7738 67.4963C29.3181 67.7745 29.7788 68.1922 30.1088 68.7066C30.4329 69.2246 30.6114 69.8203 30.6254 70.4312C30.6413 71.2702 30.4438 72.0994 30.0515 72.8412C29.2129 72.873 28.38 72.6913 27.6309 72.3132C27.0866 72.0356 26.6272 71.6163 26.3011 71.0996C25.9807 70.5791 25.8042 69.9828 25.7897 69.3717C25.7743 68.5345 25.9698 67.7068 26.3584 66.965Z" fill="#001D62"/>
<path d="M37.0623 40.6427C36.0592 41.1161 35.0921 41.6622 34.1688 42.2768C34.2973 41.4802 34.5909 40.7193 35.0308 40.0429C35.3338 39.5854 35.7495 39.2136 36.2378 38.9633C36.7122 38.731 37.2409 38.6325 37.7671 38.6785C38.5411 38.7558 39.3019 38.9322 40.031 39.2032L37.0623 40.6427Z" fill="#001D62"/>
<path d="M39.6112 41.6923C39.2962 42.2481 38.8228 42.6975 38.2514 42.9833C37.68 43.269 37.0364 43.378 36.4027 43.2964C35.5749 43.1809 34.7986 42.8266 34.1688 42.277C34.7343 42.2261 35.2924 42.113 35.833 41.9397C36.369 41.7686 36.8925 41.5607 37.3998 41.3174C37.9079 41.0669 38.3921 40.7708 38.8466 40.4327C39.3125 40.0979 39.7138 39.6814 40.0311 39.2034C40.2103 40.0563 40.0603 40.9454 39.6112 41.6923Z" fill="#001D62"/>
<path d="M35.893 47.3895C34.656 47.8392 33.3967 48.2365 32.1298 48.7687C32.4932 47.964 33.0072 47.2363 33.6441 46.6249C34.1103 46.1857 34.6613 45.8464 35.2633 45.6278C35.834 45.4212 36.4423 45.3394 37.0473 45.3878C37.8821 45.4716 38.7093 45.6195 39.5214 45.8302C38.3612 46.4578 37.1468 46.9797 35.893 47.3895Z" fill="#001D62"/>
<path d="M38.6742 48.5289C38.1836 49.1268 37.5415 49.582 36.815 49.847C36.0884 50.112 35.304 50.1771 34.5437 50.0355C33.6306 49.8638 32.7898 49.4226 32.1298 48.7686C32.8133 48.7954 33.4976 48.7426 34.1689 48.6112C34.8394 48.4945 35.4989 48.3215 36.1403 48.094C36.7904 47.871 37.4139 47.5768 37.9994 47.217C38.5976 46.8655 39.116 46.3931 39.5214 45.8301C39.5739 46.314 39.5258 46.8036 39.38 47.2681C39.2342 47.7325 38.9939 48.1618 38.6742 48.5289Z" fill="#001D62"/>
<path d="M34.4836 53.2216C33.2468 53.6715 31.9872 54.0688 30.7204 54.601C31.0835 53.7942 31.6004 53.066 32.2422 52.4569C32.7046 52.0166 33.2535 51.6771 33.854 51.46C34.4247 51.2535 35.0331 51.1716 35.6381 51.2201C36.4728 51.3039 37.2999 51.4518 38.1119 51.6625C36.9518 52.2901 35.7374 52.8119 34.4836 53.2216Z" fill="#001D62"/>
<path d="M37.2648 54.361C36.7743 54.9589 36.1322 55.4142 35.4057 55.6792C34.6791 55.9443 33.8947 56.0094 33.1344 55.8678C32.2213 55.6961 31.3805 55.2549 30.7204 54.6009C31.4039 54.6277 32.0883 54.5749 32.7596 54.4435C33.4301 54.3268 34.0896 54.1537 34.7311 53.9261C35.3812 53.7031 36.0047 53.409 36.5902 53.0491C37.1883 52.6977 37.7066 52.2254 38.112 51.6624C38.1645 52.1463 38.1164 52.6358 37.9706 53.1003C37.8248 53.5647 37.5845 53.9939 37.2648 54.361Z" fill="#001D62"/>
<path d="M33.2991 60.3657C32.0473 60.9354 30.7354 61.4003 29.4235 61.9849C29.7904 61.1582 30.3062 60.406 30.9453 59.7659C31.406 59.3005 31.9469 58.9222 32.5421 58.6491C33.0891 58.4075 33.6764 58.2702 34.2739 58.2443C34.9184 58.1843 35.5781 58.3117 36.74 58.1543C36.2779 58.6703 35.7332 59.106 35.1284 59.4437C34.5397 59.7912 33.9286 60.0992 33.2991 60.3657Z" fill="#001D62"/>
<path d="M36.9575 58.9715C36.9662 59.2374 36.9486 59.5035 36.905 59.766C36.7995 60.2505 36.6036 60.7108 36.3277 61.1229C35.8441 61.8471 35.1623 62.417 34.3638 62.7645C33.6226 63.0925 32.808 63.2192 32.0023 63.132C31.0458 63.0215 30.1461 62.6212 29.4235 61.9849C30.1437 61.9846 30.8612 61.8965 31.5601 61.7226C32.2623 61.5635 32.9476 61.3376 33.6066 61.0478C34.2793 60.7609 34.9078 60.3798 35.4732 59.916C36.0631 59.4696 36.5046 58.8556 36.7401 58.1543C36.7966 58.2859 36.8442 58.4211 36.8827 58.5591C36.9154 58.695 36.9404 58.8327 36.9575 58.9715Z" fill="#001D62"/>
<path d="M29.3935 70.5236C29.4343 69.6985 29.615 68.8864 29.9277 68.1218C30.1328 67.6177 30.4407 67.1618 30.8316 66.7832C31.1832 66.4623 31.6066 66.2305 32.0663 66.1071C32.7919 65.9713 33.4936 65.7291 34.1485 65.3884C34.2573 65.4693 34.361 65.5569 34.4587 65.6509C34.5465 65.7503 34.6284 65.8548 34.704 65.9638C34.8311 66.1817 34.9302 66.4148 34.999 66.6575C35.1099 67.1119 35.1191 67.5853 35.0257 68.0437C34.8755 68.8331 34.4723 69.5521 33.8773 70.0922C33.3407 70.5879 32.6663 70.9091 31.9433 71.0131C31.0627 71.1341 30.1667 70.9621 29.3935 70.5236Z" fill="#001D62"/>
<path d="M36.6427 33.8283C36.2065 35.0272 35.9097 36.2723 35.7581 37.5391C35.2141 36.8506 34.853 36.0358 34.7085 35.1703C34.6029 34.5149 34.6569 33.8437 34.8659 33.2136C35.0834 32.585 35.4545 32.0206 35.9456 31.5719C36.5945 30.9829 37.3804 30.5654 38.2318 30.3574C37.5724 31.4505 37.0392 32.6149 36.6427 33.8283Z" fill="#001D62"/>
<path d="M39.1239 34.6829C38.9024 35.3092 38.5289 35.8708 38.0369 36.3172C37.3924 36.91 36.6085 37.3303 35.7581 37.5391C36.4117 36.443 36.9446 35.2793 37.3473 34.0683C37.7826 32.8691 38.0794 31.6241 38.2318 30.3574C38.7776 31.0457 39.1412 31.8605 39.2889 32.7264C39.3957 33.3822 39.339 34.0542 39.1239 34.6829Z" fill="#001D62"/>
<path d="M26.3586 66.9646C27.1875 67.7871 27.914 68.7067 28.5222 69.7035C29.158 70.683 29.6716 71.7367 30.0515 72.841C29.2213 72.0196 28.4947 71.0998 27.8878 70.1021C27.2534 69.1218 26.7399 68.0683 26.3586 66.9646Z" fill="white"/>
<path d="M29.3935 70.5236C30.3064 69.6826 31.2449 68.9609 32.1009 68.1621C32.5343 67.7799 32.9358 67.363 33.3013 66.9154C33.6813 66.467 33.9692 65.9481 34.1485 65.3884C34.2533 66.0271 34.1265 66.6822 33.7909 67.2356C33.483 67.7915 33.0831 68.2911 32.6082 68.7133C32.1481 69.1321 31.643 69.4987 31.1022 69.8065C30.5678 70.122 29.993 70.3632 29.3935 70.5236Z" fill="white"/>
<path d="M25.4279 76.0857C25.5479 76.3182 25.6603 76.5581 25.7729 76.7904C25.9002 77.0603 26.0278 77.3228 26.1552 77.5925C26.3799 78.0649 26.6048 78.5296 26.8223 79.002C27.0172 78.4847 27.2196 77.9749 27.4145 77.4652C27.5344 77.1729 27.6544 76.873 27.7743 76.5807C27.8193 76.4533 27.8719 76.3332 27.9242 76.2058C27.0922 76.1833 26.26 76.1458 25.4279 76.0857ZM28.6588 77.3378L28.4641 76.8654C28.3966 77.0378 28.3291 77.2102 28.2617 77.3826C27.9692 78.1249 27.6768 78.8669 27.3695 79.6016C28.1041 79.5717 28.8389 79.5492 29.5736 79.5417L28.6588 77.3378ZM31.0353 76.2281C30.6753 76.2281 30.3155 76.2358 29.9483 76.2431C29.6334 76.2358 29.3186 76.2358 28.9963 76.2281L29.0787 76.4382L29.3861 77.2702L30.0532 79.047L30.7729 77.1354L31.1102 76.2282L31.0353 76.2281ZM31.6724 77.0453L31.515 76.6029L31.3501 77.0753L30.5029 79.5491C31.2002 79.5566 31.8973 79.5716 32.6019 79.6015L31.6724 77.0453ZM31.8898 76.2133L32.1523 77.0004L32.9392 79.3768L34.0414 76.8203L34.3487 76.1007C33.5316 76.1533 32.7071 76.1908 31.8899 76.2133H31.8898ZM34.806 76.7456L34.5736 76.1758L34.3337 76.7904L33.2317 79.6315C34.1762 79.6841 35.1283 79.7666 36.0803 79.9015L34.806 76.7456ZM25.4278 76.0858C25.5479 76.3182 25.6602 76.5581 25.7728 76.7904C25.9002 77.0603 26.0277 77.3228 26.1551 77.5926C26.3799 78.0649 26.6048 78.5296 26.8222 79.002C27.0171 78.4848 27.2195 77.9749 27.4144 77.4652C27.5343 77.1729 27.6544 76.873 27.7743 76.5807C27.8193 76.4533 27.8718 76.3332 27.9242 76.2059C27.0922 76.1833 26.26 76.1458 25.4279 76.0857L25.4278 76.0858ZM28.6588 77.3378L28.464 76.8654C28.3965 77.0378 28.329 77.2103 28.2616 77.3826C27.9692 78.125 27.6767 78.8669 27.3694 79.6016C28.1041 79.5718 28.8389 79.5492 29.5735 79.5417L28.6588 77.3378ZM31.0353 76.2282C30.6753 76.2282 30.3155 76.2358 29.9483 76.2431C29.6333 76.2358 29.3185 76.2358 28.9962 76.2282L29.0786 76.4383L29.3861 77.2703L30.0532 79.047L30.7728 77.1354L31.1102 76.2282L31.0353 76.2282ZM31.6724 77.0453L31.5149 76.603L31.35 77.0754L30.5028 79.5492C31.2001 79.5567 31.8972 79.5717 32.6018 79.6015L31.6724 77.0453ZM31.8897 76.2133L32.1522 77.0005L32.9392 79.3768L34.0413 76.8204L34.3486 76.1007C33.5316 76.1533 32.7071 76.1908 31.8899 76.2133L31.8897 76.2133ZM34.806 76.7456L34.5735 76.1758L34.3336 76.7904L33.2316 79.6316C34.1762 79.6841 35.1282 79.7667 36.0803 79.9015L34.806 76.7456ZM25.0306 76.4156C24.9481 76.5732 24.8582 76.7381 24.7757 76.8955L25.203 76.8504C25.1431 76.708 25.0907 76.5581 25.0307 76.4155L25.0306 76.4156ZM25.4278 76.0858C25.5478 76.3182 25.6602 76.5582 25.7728 76.7904C25.9001 77.0604 26.0277 77.3228 26.1551 77.5926C26.5749 77.5477 26.9946 77.5027 27.4144 77.4652C27.5343 77.1729 27.6544 76.873 27.7742 76.5807C27.8193 76.4533 27.8718 76.3332 27.9242 76.2059C27.0922 76.1833 26.26 76.1458 25.4279 76.0857L25.4278 76.0858ZM28.464 76.8654C28.3965 77.0378 28.329 77.2103 28.2616 77.3826C28.389 77.3676 28.5239 77.3527 28.6588 77.3378L28.464 76.8654ZM29.9483 76.2432C29.6334 76.2358 29.3186 76.2358 28.9963 76.2282L29.0786 76.4383C29.7309 76.3707 30.383 76.2957 31.0353 76.2282C30.6754 76.2281 30.3156 76.2358 29.9484 76.2431L29.9483 76.2432ZM21.3948 65.1936L23.059 75.8683C23.6888 75.786 24.3183 75.726 24.9406 75.6736C24.9694 75.6527 25.0029 75.639 25.0381 75.6338C25.0734 75.6286 25.1093 75.632 25.143 75.6436L25.158 75.6586C26.2224 75.5836 27.2795 75.5311 28.3365 75.5085C28.4149 75.4862 28.498 75.4862 28.5764 75.5085C29.0336 75.5012 29.491 75.4935 29.9483 75.4935C31.8374 75.5012 33.7189 75.5461 35.6005 75.726C36.0128 75.771 36.4327 75.816 36.845 75.8684L36.8899 75.5836L38.5017 65.1936L21.3948 65.1936ZM24.041 75.2463C23.7499 75.2356 23.4742 75.1125 23.272 74.9028C23.0698 74.6931 22.9569 74.4131 22.9569 74.1218C22.9569 73.8305 23.0698 73.5505 23.272 73.3408C23.4742 73.1311 23.7499 73.008 24.041 72.9973C24.3321 73.0081 24.6076 73.1312 24.8097 73.3409C25.0119 73.5506 25.1248 73.8305 25.1248 74.1217C25.1248 74.413 25.0119 74.6929 24.8098 74.9026C24.6077 75.1123 24.3322 75.2355 24.0411 75.2462L24.041 75.2463ZM28.0892 75.2463C27.7981 75.2356 27.5224 75.1125 27.3202 74.9028C27.118 74.6931 27.0051 74.4131 27.0051 74.1218C27.0051 73.8305 27.118 73.5505 27.3202 73.3408C27.5224 73.1311 27.7981 73.008 28.0892 72.9973C28.3804 73.0078 28.6562 73.1308 28.8586 73.3405C29.0609 73.5503 29.174 73.8303 29.174 74.1217C29.174 74.4131 29.061 74.6932 28.8586 74.9029C28.6563 75.1127 28.3805 75.2357 28.0893 75.2462L28.0892 75.2463ZM32.0021 75.1114C31.711 75.1007 31.4354 74.9776 31.2332 74.7679C31.031 74.5582 30.918 74.2782 30.918 73.9869C30.918 73.6956 31.031 73.4156 31.2332 73.2059C31.4354 72.9962 31.711 72.8731 32.0021 72.8624C32.2932 72.8732 32.5688 72.9963 32.7709 73.206C32.973 73.4157 33.0859 73.6956 33.086 73.9868C33.086 74.2781 32.9731 74.558 32.771 74.7677C32.5689 74.9774 32.2933 75.1006 32.0023 75.1114L32.0021 75.1114ZM35.8479 75.2463C35.5568 75.2356 35.2811 75.1125 35.0789 74.9028C34.8767 74.6931 34.7638 74.4131 34.7638 74.1218C34.7638 73.8305 34.8767 73.5505 35.0789 73.3408C35.2811 73.1311 35.5568 73.008 35.8479 72.9973C36.139 73.0081 36.4145 73.1312 36.6166 73.3409C36.8188 73.5506 36.9317 73.8305 36.9317 74.1217C36.9317 74.413 36.8188 74.6929 36.6167 74.9026C36.4146 75.1123 36.1391 75.2355 35.848 75.2462L35.8479 75.2463ZM34.806 76.7456L34.5736 76.1758L34.3336 76.7904L33.2316 79.6315C34.1762 79.6841 35.1282 79.7666 36.0803 79.9015L34.806 76.7456ZM31.8898 76.2133L32.1522 77.0004L32.9392 79.3768L34.0413 76.8203L34.3486 76.1007C33.5316 76.1533 32.7071 76.1908 31.8899 76.2133H31.8898ZM31.6724 77.0453L31.5149 76.6029L31.35 77.0753L30.5028 79.5491C31.2001 79.5566 31.8972 79.5716 32.6018 79.6015L31.6724 77.0453ZM31.0353 76.2281C30.6753 76.2281 30.3155 76.2358 29.9483 76.2431C29.6333 76.2358 29.3185 76.2358 28.9963 76.2281L29.0786 76.4382L29.3861 77.2702L30.0532 79.047L30.7728 77.1354L31.1102 76.2282L31.0353 76.2281ZM28.6588 77.3378L28.4641 76.8654C28.3965 77.0378 28.3291 77.2102 28.2617 77.3826C27.9692 78.1249 27.6767 78.8669 27.3694 79.6016C28.1041 79.5717 28.8389 79.5492 29.5735 79.5417L28.6588 77.3378ZM25.4278 76.0857C25.5479 76.3182 25.6602 76.5581 25.7728 76.7904C25.9002 77.0603 26.0278 77.3228 26.1551 77.5925C26.3799 78.0649 26.6048 78.5296 26.8222 79.002C27.0171 78.4847 27.2195 77.9749 27.4145 77.4652C27.5343 77.1729 27.6544 76.873 27.7743 76.5807C27.8193 76.4533 27.8718 76.3332 27.9242 76.2058C27.0922 76.1833 26.26 76.1458 25.4279 76.0857H25.4278ZM34.8061 76.7455L34.5736 76.1758L34.3337 76.7904L33.2317 79.6315C34.1763 79.684 35.1283 79.7666 36.0804 79.9015L34.8061 76.7455ZM31.8898 76.2133L32.1523 77.0004L32.9393 79.3767L34.0414 76.8203L34.3487 76.1007C33.5316 76.1533 32.7071 76.1908 31.8899 76.2133L31.8898 76.2133ZM31.6724 77.0453L31.515 76.6029L31.3501 77.0753L30.5029 79.5491C31.2002 79.5566 31.8973 79.5716 32.6019 79.6015L31.6724 77.0453ZM31.0354 76.2281C30.6754 76.2281 30.3155 76.2358 29.9484 76.2431C29.6334 76.2358 29.3186 76.2358 28.9963 76.2281L29.0787 76.4382L29.3862 77.2702L30.0533 79.047L30.7729 77.1354L31.1102 76.2281L31.0354 76.2281ZM28.6589 77.3377L28.4641 76.8654C28.3966 77.0378 28.3291 77.2102 28.2617 77.3826C27.9693 78.1249 27.6768 78.8669 27.3695 79.6015C28.1042 79.5717 28.839 79.5492 29.5736 79.5417L28.6589 77.3377ZM25.4279 76.0857C25.5479 76.3181 25.6603 76.5581 25.7729 76.7903C25.9003 77.0603 26.0278 77.3227 26.1552 77.5925C26.3799 78.0649 26.6049 78.5296 26.8223 79.0019C27.0172 78.4847 27.2196 77.9748 27.4145 77.4652C27.5344 77.1729 27.6545 76.8729 27.7743 76.5806C27.8194 76.4532 27.8719 76.3332 27.9243 76.2058C27.0922 76.1833 26.26 76.1458 25.4279 76.0857L25.4279 76.0857ZM31.0354 76.2281C30.3831 76.2956 29.731 76.3707 29.0787 76.4382L29.3862 77.2702C29.8434 77.2252 30.3083 77.1802 30.7729 77.1353L31.1103 76.2281H31.0354ZM31.5151 76.6029L31.3502 77.0753C31.455 77.0678 31.5676 77.0603 31.6725 77.0453L31.5151 76.6029ZM31.8899 76.2133L32.1524 77.0004L34.0415 76.8203L34.3487 76.1007C33.5316 76.1533 32.7071 76.1908 31.8899 76.2133L31.8899 76.2133ZM34.5737 76.1758L34.3338 76.7904C34.4911 76.7755 34.6486 76.7606 34.8061 76.7455L34.5737 76.1758ZM34.7686 76.0707L35.0085 76.7305L36.1553 79.9015V79.909C36.1756 79.9078 36.196 79.9103 36.2154 79.9165L36.7401 76.5656L36.8452 75.8683C36.148 75.9584 35.4582 76.0184 34.7686 76.0707L34.7686 76.0707ZM36.148 79.924C36.148 79.9315 36.148 79.9465 36.133 79.9465C36.125 79.9499 36.116 79.9502 36.1077 79.9475C36.0994 79.9447 36.0924 79.939 36.088 79.9315C34.0512 80.182 32.0005 80.3022 29.9485 80.2913C28.9814 80.2838 28.0143 80.2614 27.0472 80.2163C26.9993 80.2518 26.9429 80.2739 26.8836 80.2805C26.8244 80.287 26.7644 80.2778 26.7099 80.2538C26.6782 80.2364 26.6481 80.2163 26.6199 80.1937C25.6453 80.1339 24.6634 80.0514 23.6888 79.9165L24.191 83.1399H35.7131L36.2153 79.9165C36.1926 79.9153 36.1699 79.9178 36.148 79.924L36.148 79.924ZM26.5974 82.855C26.3056 82.8454 26.029 82.7227 25.826 82.5129C25.623 82.3031 25.5095 82.0225 25.5095 81.7306C25.5095 81.4386 25.623 81.1581 25.826 80.9483C26.029 80.7385 26.3056 80.6158 26.5974 80.6061C26.8891 80.6158 27.1658 80.7385 27.3688 80.9483C27.5718 81.1581 27.6852 81.4386 27.6852 81.7306C27.6852 82.0225 27.5718 82.3031 27.3688 82.5129C27.1658 82.7227 26.8891 82.8454 26.5974 82.855ZM30.3756 82.855C30.0838 82.8454 29.8072 82.7227 29.6042 82.5129C29.4012 82.3031 29.2877 82.0225 29.2877 81.7306C29.2877 81.4386 29.4012 81.1581 29.6042 80.9483C29.8072 80.7385 30.0838 80.6158 30.3756 80.6061C30.6674 80.6158 30.944 80.7385 31.147 80.9483C31.35 81.1581 31.4635 81.4386 31.4635 81.7306C31.4635 82.0225 31.35 82.3031 31.147 82.5129C30.944 82.7227 30.6674 82.8454 30.3756 82.855ZM34.1538 82.7202C33.862 82.7105 33.5854 82.5878 33.3824 82.378C33.1794 82.1682 33.0659 81.8876 33.0659 81.5957C33.0659 81.3037 33.1794 81.0232 33.3824 80.8134C33.5854 80.6036 33.862 80.4809 34.1538 80.4712C34.4456 80.4809 34.7222 80.6036 34.9252 80.8134C35.1282 81.0232 35.2417 81.3037 35.2417 81.5957C35.2417 81.8876 35.1282 82.1681 34.9252 82.378C34.7222 82.5878 34.4456 82.7105 34.1538 82.7202H34.1538ZM34.806 76.7455L34.5736 76.1758L34.3337 76.7903L33.2317 79.6315C34.1762 79.684 35.1283 79.7666 36.0803 79.9014L34.806 76.7455ZM31.8898 76.2133L32.1523 77.0004L32.9393 79.3767L34.0414 76.8203L34.3487 76.1006C33.5316 76.1533 32.7071 76.1908 31.8899 76.2133L31.8898 76.2133ZM31.6724 77.0453L31.515 76.6029L31.3501 77.0753L30.5029 79.5491C31.2002 79.5566 31.8973 79.5716 32.6019 79.6014L31.6724 77.0453ZM31.0353 76.2281C30.6754 76.2281 30.3155 76.2358 29.9484 76.2431C29.6334 76.2357 29.3186 76.2358 28.9963 76.2281L29.0787 76.4382L29.3861 77.2702L30.0532 79.0469L30.7729 77.1353L31.1102 76.2281L31.0353 76.2281ZM28.6589 77.3377L28.4641 76.8653C28.3966 77.0378 28.3291 77.2102 28.2617 77.3826C27.9692 78.1249 27.6768 78.8668 27.3695 79.6015C28.1041 79.5717 28.839 79.5492 29.5736 79.5417L28.6589 77.3377ZM25.4279 76.0857C25.5479 76.3181 25.6603 76.5581 25.7729 76.7903C25.9002 77.0603 26.0278 77.3227 26.1552 77.5925C26.3799 78.0649 26.6049 78.5295 26.8223 79.0019C27.0172 78.4847 27.2196 77.9748 27.4145 77.4651C27.5344 77.1729 27.6544 76.8729 27.7743 76.5806C27.8194 76.4532 27.8719 76.3332 27.9243 76.2058C27.0922 76.1833 26.26 76.1458 25.4279 76.0857L25.4279 76.0857ZM25.5254 77.6525C25.4206 77.3902 25.308 77.1203 25.2031 76.8503C25.1431 76.708 25.0908 76.5581 25.0307 76.4155C24.9482 76.5731 24.8583 76.738 24.7758 76.8954C24.6258 77.1878 24.4685 77.4801 24.3111 77.7724C24.0786 78.2147 23.8388 78.657 23.5914 79.0993C23.5884 79.1021 23.5848 79.1043 23.5809 79.1056C23.577 79.1068 23.5728 79.1073 23.5687 79.1068L23.6888 79.9164C24.5733 79.7889 25.4655 79.714 26.35 79.654C26.0801 78.987 25.8027 78.3197 25.5254 77.6526L25.5254 77.6525ZM26.1552 77.5925C26.3799 78.0649 26.6049 78.5295 26.8223 79.0019C27.0172 78.4847 27.2196 77.9748 27.4145 77.4651C26.9947 77.5027 26.575 77.5477 26.1552 77.5925L26.1552 77.5925ZM28.6589 77.3377C28.524 77.3525 28.3891 77.3676 28.2617 77.3826C27.9693 78.1249 27.6768 78.8668 27.3695 79.6015C28.1042 79.5717 28.839 79.5492 29.5736 79.5417L28.6589 77.3377ZM29.3862 77.2702L30.0533 79.0469L30.773 77.1353C30.3082 77.1802 29.8434 77.2252 29.3862 77.2702L29.3862 77.2702ZM31.6725 77.0453C31.5676 77.0603 31.4551 77.0678 31.3502 77.0753L30.503 79.5491C31.2003 79.5566 31.8974 79.5716 32.602 79.6014L31.6725 77.0453ZM32.1523 77.0005L32.9393 79.3768L34.0415 76.8204L32.1523 77.0005ZM34.8061 76.7455C34.6487 76.7605 34.4912 76.7754 34.3337 76.7903L33.2317 79.6315C34.1763 79.684 35.1283 79.7666 36.0804 79.9014L34.8061 76.7455ZM23.059 75.8683L23.2464 77.0603L23.3663 77.87L23.5464 79.002C23.7038 78.5971 23.8612 78.1998 24.0186 77.8025C24.131 77.5102 24.251 77.2252 24.3709 76.9404C24.4908 76.6406 24.6109 76.3407 24.7383 76.0407C24.176 75.9959 23.6213 75.9358 23.059 75.8683Z" fill="#001D62"/>
<path d="M30.9886 74.1635C30.3629 73.6009 29.8996 72.8807 29.6469 72.078C29.5291 71.6777 29.3762 71.2813 29.2864 70.8723L29.0327 69.6387C28.8257 67.9777 28.7625 66.3019 28.8438 64.6301C28.8733 62.9552 29.1237 61.3052 29.3177 59.6483C29.6213 58.0125 29.8551 56.358 30.2523 54.7432C30.6249 53.1218 30.9976 51.5009 31.4685 49.9075C31.9222 48.309 32.3579 46.7063 32.9171 45.1419C33.4577 43.5723 33.9429 41.9855 34.5441 40.4388C35.1525 38.8943 35.7299 37.3407 36.3637 35.8088C35.4819 39.0091 34.4608 42.1554 33.6023 45.3489L32.9345 47.7352L32.3197 50.1342C32.1211 50.935 31.8814 51.726 31.7029 52.5309L31.1605 54.9434C30.7483 56.5423 30.5162 58.1724 30.1852 59.7863C29.9421 61.4113 29.6865 63.0376 29.5551 64.6736C29.3934 66.3058 29.3692 67.9487 29.4829 69.5849L29.6286 70.8027C29.6826 71.2085 29.7981 71.5999 29.8803 72.0024C30.0673 72.8026 30.4479 73.5447 30.9886 74.1635Z" fill="#001D62"/>
<path d="M23.5614 79.0843L23.5464 79.002L23.5239 79.0693C23.5164 79.0843 23.5239 79.0993 23.5389 79.1143C23.5538 79.1218 23.5614 79.1143 23.5688 79.1068L23.5614 79.0843Z" fill="#FCFCFC"/>
<path d="M50.0894 80.5286C52.5479 79.8519 55.0419 79.3118 57.5601 78.9109C60.0728 78.4764 62.6078 78.1831 65.1533 78.0322C62.6953 78.7106 60.2012 79.2508 57.6827 79.6501C55.1698 80.083 52.6348 80.3763 50.0894 80.5286Z" fill="#001D62"/>
<path d="M79.8442 80.2003C82.3026 79.5234 84.7967 78.9833 87.3149 78.5825C89.8275 78.148 92.3625 77.8546 94.9079 77.7039C92.4499 78.3823 89.9558 78.9224 87.4373 79.3216C84.9244 79.7544 82.3895 80.0478 79.8442 80.2003Z" fill="#001D62"/>
<path d="M110.355 74.9124C112.813 74.2356 115.307 73.6955 117.826 73.2947C120.338 72.8601 122.873 72.5668 125.419 72.416C122.961 73.0945 120.466 73.6346 117.948 74.0338C115.435 74.4666 112.9 74.7599 110.355 74.9124Z" fill="#001D62"/>
<path d="M237.767 122.283C236.202 121.221 234.823 119.907 233.686 118.395C232.521 116.912 231.47 115.342 230.544 113.699C229.612 112.062 228.77 110.377 227.994 108.663C227.217 106.946 226.492 105.221 225.845 103.431L226.558 103.875C222.8 104.362 218.981 104.031 215.363 102.907C213.566 102.38 211.809 101.725 210.105 100.946C208.401 100.189 206.742 99.335 205.136 98.3873C201.935 96.505 198.892 94.3666 196.036 91.9932C193.18 89.6333 190.479 87.0921 187.95 84.3853L187.938 84.3721C187.849 84.2752 187.8 84.1477 187.801 84.0158C187.803 83.8839 187.854 83.7576 187.946 83.6626C189.037 82.5333 190.168 81.4843 191.339 80.4632C192.505 79.4394 193.735 78.4901 194.991 77.5776C196.247 76.6539 197.584 75.8461 198.985 75.1641C200.388 74.4172 201.938 73.9897 203.525 73.9123C203.555 73.9123 203.586 73.9173 203.615 73.9271C205.104 74.4425 206.606 74.9204 208.101 75.4187L212.59 76.8991C215.578 77.8997 218.586 78.841 221.588 79.8L221.01 80.1137L224.947 63.6299C226.275 58.1392 227.627 52.6548 229.004 47.1769L228.987 47.2635C229.083 46.7929 229.23 46.3344 229.427 45.8963C229.599 45.4873 229.802 45.1057 230.004 44.7228C230.426 43.9844 230.898 43.2759 231.418 42.6025C232.438 41.2806 233.575 40.0531 234.816 38.935C237.264 36.732 239.926 34.7793 242.762 33.1061C244.181 32.2538 245.651 31.4903 247.164 30.82C248.684 30.1633 250.242 29.6 251.83 29.1335C255.008 28.1921 258.303 27.7021 261.617 27.6779C264.927 27.6433 268.225 28.085 271.409 28.9892C273.004 29.4447 274.555 30.0386 276.047 30.7641C276.415 30.9569 276.774 31.1705 277.137 31.3727L277.68 31.6803L278.197 32.0339C278.539 32.2728 278.889 32.4995 279.222 32.7484L280.183 33.5524C282.695 35.766 284.479 38.6875 285.3 41.9332C286.015 45.1259 286.106 48.4265 285.568 51.6537C285.567 51.6658 285.562 51.6774 285.556 51.6879C285.55 51.6984 285.542 51.7075 285.532 51.7148C285.522 51.7221 285.511 51.7274 285.499 51.7303C285.487 51.7333 285.475 51.7338 285.463 51.732C285.439 51.7283 285.418 51.7159 285.404 51.6974C285.389 51.6789 285.382 51.6556 285.384 51.6321C285.696 48.4444 285.417 45.2265 284.562 42.1399C283.649 39.1245 281.858 36.4495 279.418 34.4558L278.493 33.743C278.171 33.5235 277.834 33.3251 277.506 33.1152L277.011 32.8043L276.489 32.5372C276.14 32.3617 275.798 32.175 275.445 32.0083C274.014 31.3631 272.53 30.8401 271.011 30.445C267.957 29.6597 264.805 29.3179 261.654 29.43C260.082 29.4781 258.515 29.6374 256.966 29.9065C255.414 30.1596 253.882 30.5169 252.378 30.9761C250.875 31.4369 249.401 31.9888 247.966 32.6289C246.535 33.2805 245.14 34.0085 243.787 34.8096C241.065 36.4234 238.497 38.2832 236.114 40.3655C234.942 41.3919 233.864 42.5217 232.893 43.7413C232.418 44.3387 231.985 44.9679 231.596 45.6247C231.418 45.9532 231.237 46.281 231.092 46.615C230.955 46.9119 230.844 47.2203 230.762 47.5367L230.744 47.6237C229.31 53.087 227.852 58.5443 226.371 63.9956L221.879 80.3368L221.875 80.3509C221.86 80.4069 221.834 80.4593 221.798 80.5051C221.762 80.551 221.718 80.5894 221.668 80.6181C221.617 80.6468 221.561 80.6653 221.504 80.6725C221.446 80.6796 221.388 80.6754 221.332 80.66L221.301 80.6506C218.33 79.5999 215.365 78.5315 212.38 77.5223L207.909 75.9883C206.417 75.4818 204.932 74.9547 203.434 74.4654L203.525 74.48C202.027 74.5714 200.569 74.9909 199.252 75.7088C197.899 76.4021 196.614 77.2204 195.413 78.153C194.198 79.0754 193.035 80.065 191.929 81.117C190.822 82.1627 189.738 83.2552 188.735 84.3802L188.73 83.6574C191.322 86.2179 194.075 88.611 196.97 90.8222C199.837 93.0559 202.845 95.1013 205.976 96.9455C207.542 97.8551 209.138 98.7102 210.78 99.4585C212.41 100.224 214.093 100.871 215.816 101.394C219.217 102.516 222.814 102.918 226.379 102.575L226.405 102.572C226.554 102.557 226.703 102.593 226.828 102.674C226.953 102.756 227.046 102.878 227.092 103.02C227.648 104.765 228.306 106.513 229.005 108.226C229.706 109.942 230.473 111.632 231.328 113.274C232.145 114.936 233.085 116.534 234.14 118.055C235.173 119.592 236.431 120.965 237.872 122.129C237.892 122.143 237.905 122.165 237.909 122.189C237.913 122.214 237.907 122.239 237.892 122.259C237.878 122.278 237.857 122.29 237.834 122.295C237.811 122.299 237.787 122.295 237.767 122.283Z" fill="#001D62"/>
</svg>
