<svg width="40" height="40" viewBox="0 0 40 40" fill="none" xmlns="http://www.w3.org/2000/svg">
<g id="globe-01">
<path id="Icon" d="M3.33331 19.9999H36.6666M3.33331 19.9999C3.33331 29.2047 10.7952 36.6666 20 36.6666M3.33331 19.9999C3.33331 10.7952 10.7952 3.33325 20 3.33325M36.6666 19.9999C36.6666 29.2047 29.2047 36.6666 20 36.6666M36.6666 19.9999C36.6666 10.7952 29.2047 3.33325 20 3.33325M20 3.33325C24.1688 7.89717 26.5379 13.82 26.6666 19.9999C26.5379 26.1799 24.1688 32.1027 20 36.6666M20 3.33325C15.8312 7.89717 13.4621 13.82 13.3333 19.9999C13.4621 26.1799 15.8312 32.1027 20 36.6666" stroke="#6941C6" stroke-width="3" stroke-linecap="round" stroke-linejoin="round"/>
</g>
</svg>
