<svg width="40" height="40" viewBox="0 0 40 40" fill="none" xmlns="http://www.w3.org/2000/svg">
<g id="message-chat-circle">
<path id="Icon" d="M10.1573 18.7146C10.0537 18.047 9.99992 17.363 9.99992 16.6666C9.99992 9.30279 16.0087 3.33325 23.421 3.33325C30.8332 3.33325 36.842 9.30279 36.842 16.6666C36.842 18.33 36.5354 19.9223 35.9752 21.3908C35.8589 21.6957 35.8007 21.8482 35.7743 21.9673C35.7481 22.0852 35.7381 22.1682 35.7352 22.289C35.7323 22.4109 35.7489 22.5452 35.7819 22.8138L36.4529 28.2641C36.5255 28.8541 36.5618 29.1491 36.4637 29.3636C36.3777 29.5515 36.225 29.7008 36.0351 29.7824C35.8185 29.8756 35.5244 29.8325 34.9362 29.7463L29.6274 28.9681C29.3502 28.9275 29.2116 28.9072 29.0854 28.9079C28.9605 28.9086 28.8741 28.9178 28.7519 28.9435C28.6284 28.9695 28.4706 29.0286 28.155 29.1468C26.6828 29.6982 25.0873 29.9999 23.421 29.9999C22.724 29.9999 22.0394 29.9471 21.3711 29.8454M12.7193 36.6666C17.6608 36.6666 21.6666 32.5625 21.6666 27.4999C21.6666 22.4373 17.6608 18.3333 12.7193 18.3333C7.77778 18.3333 3.77191 22.4373 3.77191 27.4999C3.77191 28.5176 3.93377 29.4965 4.23256 30.4111C4.35886 30.7978 4.42201 30.9911 4.44274 31.1232C4.46438 31.261 4.46817 31.3385 4.46011 31.4778C4.45239 31.6112 4.419 31.7621 4.35222 32.0638L3.33331 36.6666L8.32465 35.9849C8.59709 35.9477 8.73331 35.9291 8.85226 35.9299C8.97751 35.9308 9.04399 35.9375 9.16683 35.962C9.28349 35.9853 9.45691 36.0465 9.80376 36.1689C10.7176 36.4915 11.6985 36.6666 12.7193 36.6666Z" stroke="#027A48" stroke-width="3" stroke-linecap="round" stroke-linejoin="round"/>
</g>
</svg>
