<svg width="41" height="40" viewBox="0 0 41 40" fill="none" xmlns="http://www.w3.org/2000/svg">
<g id="message-text-square-01">
<path id="Icon" d="M12.3333 14.1667H20.6667M12.3333 20H25.6667M16.8062 30H27.6667C30.4669 30 31.867 30 32.9366 29.455C33.8774 28.9757 34.6423 28.2108 35.1217 27.27C35.6667 26.2004 35.6667 24.8003 35.6667 22V13C35.6667 10.1997 35.6667 8.79961 35.1217 7.73005C34.6423 6.78924 33.8774 6.02433 32.9366 5.54497C31.867 5 30.4669 5 27.6667 5H13.6667C10.8664 5 9.46626 5 8.3967 5.54497C7.45589 6.02433 6.69099 6.78924 6.21162 7.73005C5.66666 8.79961 5.66666 10.1997 5.66666 13V33.8925C5.66666 34.7806 5.66666 35.2246 5.8487 35.4527C6.00703 35.651 6.24711 35.7664 6.50089 35.7661C6.7927 35.7658 7.13944 35.4884 7.83292 34.9337L11.8087 31.7531C12.6209 31.1033 13.0269 30.7784 13.4791 30.5474C13.8803 30.3425 14.3074 30.1927 14.7487 30.1021C15.2461 30 15.7661 30 16.8062 30Z" stroke="#0E7090" stroke-width="3" stroke-linecap="round" stroke-linejoin="round"/>
</g>
</svg>
