<svg width="41" height="40" viewBox="0 0 41 40" fill="none" xmlns="http://www.w3.org/2000/svg">
<g id="phone-02">
<path id="Icon" d="M25.6667 3.33325V5.66659C25.6667 6.60001 25.6667 7.06672 25.485 7.42324C25.3252 7.73684 25.0702 7.99181 24.7566 8.1516C24.4001 8.33325 23.9334 8.33325 23 8.33325H18.3333C17.3999 8.33325 16.9332 8.33325 16.5767 8.1516C16.2631 7.99181 16.0081 7.73684 15.8483 7.42324C15.6667 7.06672 15.6667 6.60001 15.6667 5.66659V3.33325M14.3333 36.6666H27C28.8668 36.6666 29.8002 36.6666 30.5133 36.3033C31.1405 35.9837 31.6504 35.4738 31.97 34.8466C32.3333 34.1335 32.3333 33.2001 32.3333 31.3333V8.66659C32.3333 6.79974 32.3333 5.86632 31.97 5.15328C31.6504 4.52608 31.1405 4.01614 30.5133 3.69656C29.8002 3.33325 28.8668 3.33325 27 3.33325H14.3333C12.4665 3.33325 11.5331 3.33325 10.82 3.69656C10.1928 4.01614 9.68287 4.52608 9.3633 5.15328C8.99998 5.86632 8.99998 6.79974 8.99998 8.66659V31.3333C8.99998 33.2001 8.99998 34.1335 9.3633 34.8466C9.68287 35.4738 10.1928 35.9837 10.82 36.3033C11.5331 36.6666 12.4665 36.6666 14.3333 36.6666Z" stroke="#B93815" stroke-width="3" stroke-linecap="round" stroke-linejoin="round"/>
</g>
</svg>
