<svg width="41" height="40" viewBox="0 0 41 40" fill="none" xmlns="http://www.w3.org/2000/svg">
<g id="phone-01">
<path id="Icon" d="M20.3333 29.1666H20.35M14 36.6666H26.6666C28.5335 36.6666 29.4669 36.6666 30.1799 36.3033C30.8071 35.9837 31.3171 35.4738 31.6367 34.8466C32 34.1335 32 33.2001 32 31.3333V8.66659C32 6.79974 32 5.86632 31.6367 5.15328C31.3171 4.52608 30.8071 4.01614 30.1799 3.69656C29.4669 3.33325 28.5335 3.33325 26.6666 3.33325H14C12.1331 3.33325 11.1997 3.33325 10.4867 3.69656C9.85947 4.01614 9.34953 4.52608 9.02995 5.15328C8.66664 5.86632 8.66664 6.79974 8.66664 8.66659V31.3333C8.66664 33.2001 8.66664 34.1335 9.02995 34.8466C9.34953 35.4738 9.85947 35.9837 10.4867 36.3033C11.1997 36.6666 12.1331 36.6666 14 36.6666ZM21.1666 29.1666C21.1666 29.6268 20.7935 29.9999 20.3333 29.9999C19.8731 29.9999 19.5 29.6268 19.5 29.1666C19.5 28.7063 19.8731 28.3333 20.3333 28.3333C20.7935 28.3333 21.1666 28.7063 21.1666 29.1666Z" stroke="#B54708" stroke-width="3" stroke-linecap="round" stroke-linejoin="round"/>
</g>
</svg>
